{"glyphs":{"0":{"ha":817,"x_min":22,"x_max":793,"o":"m 407 -14 q 122 115 222 -14 q 22 485 22 244 q 122 855 22 726 q 407 983 222 983 q 693 855 593 983 q 793 485 793 726 q 693 115 793 243 q 407 -14 593 -14 m 315 485 q 338 299 315 358 q 408 239 360 239 q 480 299 457 239 q 503 485 503 358 q 480 672 503 613 q 408 731 457 731 q 338 672 360 731 q 315 485 315 614 z "},"1":{"ha":433,"x_min":14,"x_max":390,"o":"m 118 0 l 118 717 l 14 717 l 14 969 l 390 969 l 390 0 l 118 0 z "},"2":{"ha":686,"x_min":14,"x_max":668,"o":"m 25 0 l 25 157 l 368 588 q 395 635 388 614 q 403 675 403 657 q 385 726 403 707 q 336 744 368 744 q 281 719 299 744 q 263 657 263 694 q 267 614 263 638 l 18 614 q 14 667 14 638 q 101 899 14 815 q 347 983 189 983 q 585 904 501 983 q 668 694 668 825 q 556 415 668 546 l 382 213 l 664 213 l 664 0 l 25 0 z "},"3":{"ha":713,"x_min":14,"x_max":696,"o":"m 349 -14 q 102 71 189 -14 q 14 308 15 156 l 269 308 q 292 249 271 271 q 347 226 313 226 q 405 251 383 226 q 426 318 426 275 q 401 385 426 361 q 322 410 375 410 l 181 410 l 181 563 l 324 728 l 35 728 l 35 969 l 661 969 l 661 796 l 468 572 q 637 483 578 554 q 696 301 696 413 q 653 135 696 207 q 533 25 611 64 q 349 -14 456 -14 z "},"4":{"ha":751,"x_min":18,"x_max":733,"o":"m 390 0 l 390 136 l 18 136 l 18 293 l 257 969 l 653 969 l 651 374 l 733 374 l 733 136 l 651 136 l 651 0 l 390 0 m 288 356 l 407 356 l 421 778 l 417 778 l 288 356 z "},"5":{"ha":722,"x_min":21,"x_max":697,"o":"m 354 -12 q 112 67 203 -12 q 21 294 21 147 l 276 294 q 299 245 279 264 q 349 226 319 226 q 403 251 381 226 q 426 326 426 275 q 403 403 426 379 q 349 426 381 426 q 276 379 297 426 l 35 379 l 61 969 l 654 969 l 654 728 l 296 728 l 288 596 l 292 596 q 419 626 347 626 q 556 594 493 626 q 658 495 619 563 q 697 322 697 428 q 606 76 697 164 q 354 -12 514 -12 z "},"6":{"ha":763,"x_min":15,"x_max":750,"o":"m 603 969 l 425 669 q 594 626 521 667 q 709 514 668 586 q 750 342 750 442 q 704 154 750 235 q 575 30 658 74 q 379 -14 492 -14 q 188 28 269 -14 q 60 149 106 71 q 15 336 15 228 q 41 489 15 413 q 131 675 67 565 l 300 969 l 603 969 m 289 346 q 315 263 289 294 q 382 231 340 231 q 449 262 425 231 q 474 346 474 293 q 449 430 474 399 q 382 461 424 461 q 315 430 340 461 q 289 346 289 399 z "},"7":{"ha":592,"x_min":15,"x_max":579,"o":"m 15 717 l 15 969 l 579 969 l 579 804 l 343 0 l 58 0 l 279 717 l 15 717 z "},"8":{"ha":751,"x_min":21,"x_max":731,"o":"m 375 -14 q 116 66 211 -14 q 21 276 21 146 q 165 513 21 443 l 165 517 q 51 721 51 586 q 139 913 51 842 q 375 983 226 983 q 613 913 525 983 q 700 721 700 842 q 585 517 700 585 l 585 513 q 731 276 731 443 q 688 124 731 189 q 565 22 644 58 q 375 -14 485 -14 m 288 306 q 312 242 288 267 q 375 217 336 217 q 439 242 415 217 q 463 306 463 267 q 439 371 463 346 q 375 396 415 396 q 312 371 336 396 q 288 306 288 346 m 301 682 q 322 626 301 647 q 375 604 343 604 q 429 626 408 604 q 450 682 450 647 q 430 738 450 717 q 375 758 410 758 q 322 738 342 758 q 301 682 301 717 z "},"9":{"ha":763,"x_min":13,"x_max":747,"o":"m 160 0 l 338 300 q 169 343 242 303 q 54 456 96 383 q 13 628 13 529 q 58 816 13 736 q 188 940 104 896 q 383 983 271 983 q 576 941 494 983 q 702 821 657 899 q 747 633 747 743 q 722 481 747 557 q 632 294 696 404 l 463 0 l 160 0 m 289 624 q 314 540 289 572 q 381 508 339 508 q 448 540 422 508 q 474 624 474 572 q 448 708 474 676 q 381 739 422 739 q 313 708 338 739 q 289 624 289 676 z "}," ":{"ha":211,"x_min":0,"x_max":0,"o":""}," ":{"ha":211,"x_min":0,"x_max":0,"o":""},"A":{"ha":738,"x_min":-8,"x_max":746,"o":"m -8 0 l 169 969 l 563 969 l 746 0 l 476 0 l 461 110 l 272 110 l 256 0 l -8 0 m 304 329 l 429 329 l 368 744 l 365 744 l 304 329 z "},"Á":{"ha":738,"x_min":-8,"x_max":746,"o":"m -8 0 l 169 969 l 563 969 l 746 0 l 476 0 l 461 110 l 272 110 l 256 0 l -8 0 m 256 1022 l 350 1258 l 606 1258 l 463 1022 l 256 1022 m 304 329 l 429 329 l 368 744 l 365 744 l 304 329 z "},"Ă":{"ha":738,"x_min":-8,"x_max":746,"o":"m -8 0 l 169 969 l 563 969 l 746 0 l 476 0 l 461 110 l 272 110 l 256 0 l -8 0 m 114 1258 l 283 1258 q 364 1183 297 1183 q 446 1258 432 1183 l 617 1258 q 543 1079 611 1144 q 364 1014 475 1014 q 186 1079 253 1014 q 114 1258 119 1144 m 304 329 l 429 329 l 368 744 l 365 744 l 304 329 z "},"Â":{"ha":738,"x_min":-8,"x_max":746,"o":"m -8 0 l 169 969 l 563 969 l 746 0 l 476 0 l 461 110 l 272 110 l 256 0 l -8 0 m 85 1022 l 240 1258 l 493 1258 l 646 1022 l 431 1022 l 368 1121 l 365 1121 l 301 1022 l 85 1022 m 304 329 l 429 329 l 368 744 l 365 744 l 304 329 z "},"Ä":{"ha":738,"x_min":-8,"x_max":746,"o":"m -8 0 l 169 969 l 563 969 l 746 0 l 476 0 l 461 110 l 272 110 l 256 0 l -8 0 m 106 1119 q 137 1197 106 1167 q 219 1228 168 1228 q 303 1198 272 1228 q 335 1119 335 1168 q 303 1041 335 1072 q 219 1010 272 1010 q 137 1041 168 1010 q 106 1119 106 1072 m 304 329 l 429 329 l 368 744 l 365 744 l 304 329 m 399 1119 q 431 1197 399 1167 q 514 1228 463 1228 q 597 1198 565 1228 q 628 1119 628 1168 q 597 1041 628 1072 q 514 1010 565 1010 q 431 1041 463 1010 q 399 1119 399 1072 z "},"À":{"ha":738,"x_min":-8,"x_max":746,"o":"m -8 0 l 169 969 l 563 969 l 746 0 l 476 0 l 461 110 l 272 110 l 256 0 l -8 0 m 126 1258 l 386 1258 l 481 1022 l 269 1022 l 126 1258 m 304 329 l 429 329 l 368 744 l 365 744 l 304 329 z "},"Ā":{"ha":738,"x_min":-8,"x_max":746,"o":"m -8 0 l 169 969 l 563 969 l 746 0 l 476 0 l 461 110 l 272 110 l 256 0 l -8 0 m 131 1036 l 131 1211 l 603 1211 l 603 1036 l 131 1036 m 304 329 l 429 329 l 368 744 l 365 744 l 304 329 z "},"Ą":{"ha":738,"x_min":-8,"x_max":746,"o":"m -8 0 l 169 969 l 563 969 l 746 0 l 743 0 q 685 -19 706 0 q 664 -61 664 -37 q 703 -96 664 -96 q 722 -93 713 -96 q 743 -86 732 -90 l 743 -232 q 696 -240 719 -237 q 653 -243 672 -243 q 518 -203 561 -243 q 475 -104 475 -162 q 517 0 475 -44 l 476 0 l 461 110 l 272 110 l 256 0 l -8 0 m 304 329 l 429 329 l 368 744 l 365 744 l 304 329 z "},"Å":{"ha":738,"x_min":-8,"x_max":746,"o":"m -8 0 l 169 969 l 563 969 l 746 0 l 476 0 l 461 110 l 272 110 l 256 0 l -8 0 m 194 1172 q 243 1289 194 1243 q 367 1335 292 1335 q 490 1289 442 1335 q 539 1172 539 1243 q 490 1056 539 1101 q 367 1011 442 1011 q 243 1056 292 1011 q 194 1172 194 1101 m 304 329 l 429 329 l 368 744 l 365 744 l 304 329 m 313 1172 q 328 1133 313 1149 q 367 1118 343 1118 q 406 1133 390 1118 q 421 1172 421 1149 q 406 1211 421 1196 q 367 1226 390 1226 q 328 1211 343 1226 q 313 1172 313 1196 z "},"Ã":{"ha":738,"x_min":-8,"x_max":746,"o":"m -8 0 l 169 969 l 563 969 l 746 0 l 476 0 l 461 110 l 272 110 l 256 0 l -8 0 m 69 1022 q 123 1195 69 1139 q 257 1251 176 1251 q 341 1238 304 1251 q 406 1210 378 1224 q 458 1196 435 1196 q 494 1210 481 1196 q 510 1249 507 1225 l 664 1249 q 611 1076 664 1133 q 476 1019 558 1019 q 392 1034 429 1019 q 327 1063 356 1049 q 275 1076 299 1076 q 224 1022 231 1076 l 69 1022 m 304 329 l 429 329 l 368 744 l 365 744 l 304 329 z "},"Æ":{"ha":921,"x_min":-8,"x_max":894,"o":"m -8 0 l 210 969 l 890 969 l 890 726 l 690 726 l 690 599 l 854 599 l 854 381 l 690 381 l 690 243 l 894 243 l 894 0 l 435 0 l 435 110 l 282 110 l 260 0 l -8 0 m 325 329 l 435 329 l 436 756 l 410 756 l 325 329 z "},"B":{"ha":726,"x_min":42,"x_max":718,"o":"m 42 0 l 42 969 l 407 969 q 614 904 542 969 q 686 728 686 839 q 651 594 686 646 q 564 518 615 542 l 564 514 q 676 434 633 490 q 718 282 718 378 q 640 76 718 153 q 422 0 563 0 l 42 0 m 313 217 l 364 217 q 424 240 403 217 q 446 306 446 263 q 424 372 446 349 q 364 394 403 394 l 313 394 l 313 217 m 313 603 l 356 603 q 415 624 394 603 q 435 681 435 646 q 415 738 435 717 q 356 758 394 758 l 313 758 l 313 603 z "},"C":{"ha":644,"x_min":14,"x_max":619,"o":"m 506 -8 q 250 51 361 -8 q 76 222 139 111 q 14 485 14 332 q 76 748 14 638 q 250 918 139 858 q 506 978 361 978 q 560 976 531 978 q 619 967 589 974 l 619 669 q 563 686 592 681 q 511 692 535 692 q 413 669 458 692 q 340 600 367 646 q 313 485 313 554 q 340 370 313 417 q 413 301 367 324 q 511 278 458 278 q 563 283 535 278 q 619 300 592 289 l 619 3 q 560 -6 589 -3 q 506 -8 531 -8 z "},"Ć":{"ha":644,"x_min":14,"x_max":664,"o":"m 506 -8 q 250 51 361 -8 q 76 222 139 111 q 14 485 14 332 q 76 748 14 638 q 250 918 139 858 q 506 978 361 978 q 560 976 531 978 q 619 967 589 974 l 619 669 q 563 686 592 681 q 511 692 535 692 q 413 669 458 692 q 340 600 367 646 q 313 485 313 554 q 340 370 313 417 q 413 301 367 324 q 511 278 458 278 q 563 283 535 278 q 619 300 592 289 l 619 3 q 560 -6 589 -3 q 506 -8 531 -8 m 314 1022 l 408 1258 l 664 1258 l 521 1022 l 314 1022 z "},"Č":{"ha":644,"x_min":14,"x_max":704,"o":"m 506 -8 q 250 51 361 -8 q 76 222 139 111 q 14 485 14 332 q 76 748 14 638 q 250 918 139 858 q 506 978 361 978 q 560 976 531 978 q 619 967 589 974 l 619 669 q 563 686 592 681 q 511 692 535 692 q 413 669 458 692 q 340 600 367 646 q 313 485 313 554 q 340 370 313 417 q 413 301 367 324 q 511 278 458 278 q 563 283 535 278 q 619 300 592 289 l 619 3 q 560 -6 589 -3 q 506 -8 531 -8 m 143 1258 l 358 1258 l 421 1158 l 424 1158 l 488 1258 l 704 1258 l 549 1022 l 296 1022 l 143 1258 z "},"Ç":{"ha":644,"x_min":14,"x_max":619,"o":"m 506 -8 l 490 -8 l 440 -215 l 215 -157 l 304 26 q 92 196 171 78 q 14 485 14 314 q 76 748 14 638 q 250 918 139 858 q 506 978 361 978 q 560 976 531 978 q 619 967 589 974 l 619 669 q 563 686 592 681 q 511 692 535 692 q 413 669 458 692 q 340 600 367 646 q 313 485 313 554 q 340 370 313 417 q 413 301 367 324 q 511 278 458 278 q 563 283 535 278 q 619 300 592 289 l 619 3 q 560 -6 589 -3 q 506 -8 531 -8 z "},"D":{"ha":853,"x_min":42,"x_max":840,"o":"m 42 0 l 42 969 l 361 969 q 618 911 511 969 q 783 744 725 853 q 840 485 840 636 q 783 226 840 335 q 618 58 725 117 q 361 0 511 0 l 42 0 m 313 257 l 360 257 q 501 319 453 257 q 549 485 549 382 q 501 650 549 588 q 360 713 453 713 l 313 713 l 313 257 z "},"Ð":{"ha":911,"x_min":22,"x_max":897,"o":"m 99 0 l 99 386 l 22 386 l 22 601 l 99 601 l 99 969 l 418 969 q 675 911 568 969 q 840 744 782 853 q 897 485 897 636 q 840 226 897 335 q 675 58 782 117 q 418 0 568 0 l 99 0 m 360 253 l 418 253 q 566 317 517 253 q 615 485 615 382 q 566 652 615 588 q 418 717 517 717 l 360 717 l 360 601 l 486 601 l 486 386 l 360 386 l 360 253 z "},"Ď":{"ha":853,"x_min":42,"x_max":840,"o":"m 42 0 l 42 969 l 361 969 q 618 911 511 969 q 783 744 725 853 q 840 485 840 636 q 783 226 840 335 q 618 58 725 117 q 361 0 511 0 l 42 0 m 49 1258 l 264 1258 l 326 1158 l 329 1158 l 393 1258 l 610 1258 l 454 1022 l 201 1022 l 49 1258 m 313 257 l 360 257 q 501 319 453 257 q 549 485 549 382 q 501 650 549 588 q 360 713 453 713 l 313 713 l 313 257 z "},"Đ":{"ha":911,"x_min":22,"x_max":897,"o":"m 99 0 l 99 386 l 22 386 l 22 601 l 99 601 l 99 969 l 418 969 q 675 911 568 969 q 840 744 782 853 q 897 485 897 636 q 840 226 897 335 q 675 58 782 117 q 418 0 568 0 l 99 0 m 360 253 l 418 253 q 566 317 517 253 q 615 485 615 382 q 566 652 615 588 q 418 717 517 717 l 360 717 l 360 601 l 486 601 l 486 386 l 360 386 l 360 253 z "},"E":{"ha":542,"x_min":42,"x_max":515,"o":"m 42 0 l 42 969 l 513 969 l 513 726 l 313 726 l 313 599 l 475 599 l 475 381 l 313 381 l 313 243 l 515 243 l 515 0 l 42 0 z "},"É":{"ha":542,"x_min":42,"x_max":519,"o":"m 42 0 l 42 969 l 513 969 l 513 726 l 313 726 l 313 599 l 475 599 l 475 381 l 313 381 l 313 243 l 515 243 l 515 0 l 42 0 m 169 1022 l 264 1258 l 519 1258 l 376 1022 l 169 1022 z "},"Ě":{"ha":542,"x_min":-1,"x_max":560,"o":"m 42 0 l 42 969 l 513 969 l 513 726 l 313 726 l 313 599 l 475 599 l 475 381 l 313 381 l 313 243 l 515 243 l 515 0 l 42 0 m -1 1258 l 214 1258 l 276 1158 l 279 1158 l 343 1258 l 560 1258 l 404 1022 l 151 1022 l -1 1258 z "},"Ê":{"ha":542,"x_min":-1,"x_max":560,"o":"m 42 0 l 42 969 l 513 969 l 513 726 l 313 726 l 313 599 l 475 599 l 475 381 l 313 381 l 313 243 l 515 243 l 515 0 l 42 0 m -1 1022 l 154 1258 l 407 1258 l 560 1022 l 344 1022 l 282 1121 l 279 1121 l 215 1022 l -1 1022 z "},"Ë":{"ha":542,"x_min":19,"x_max":542,"o":"m 42 0 l 42 969 l 513 969 l 513 726 l 313 726 l 313 599 l 475 599 l 475 381 l 313 381 l 313 243 l 515 243 l 515 0 l 42 0 m 19 1119 q 51 1197 19 1167 q 133 1228 82 1228 q 217 1198 186 1228 q 249 1119 249 1168 q 217 1041 249 1072 q 133 1010 186 1010 q 51 1041 82 1010 q 19 1119 19 1072 m 313 1119 q 344 1197 313 1167 q 428 1228 376 1228 q 510 1198 479 1228 q 542 1119 542 1168 q 510 1041 542 1072 q 428 1010 479 1010 q 344 1041 376 1010 q 313 1119 313 1072 z "},"Ė":{"ha":542,"x_min":42,"x_max":515,"o":"m 42 0 l 42 969 l 513 969 l 513 726 l 313 726 l 313 599 l 475 599 l 475 381 l 313 381 l 313 243 l 515 243 l 515 0 l 42 0 m 138 1142 q 176 1235 138 1200 q 281 1271 214 1271 q 385 1235 347 1271 q 424 1142 424 1200 q 385 1049 424 1083 q 281 1014 347 1014 q 176 1049 215 1014 q 138 1142 138 1083 z "},"È":{"ha":542,"x_min":40,"x_max":515,"o":"m 42 0 l 42 969 l 513 969 l 513 726 l 313 726 l 313 599 l 475 599 l 475 381 l 313 381 l 313 243 l 515 243 l 515 0 l 42 0 m 40 1258 l 300 1258 l 394 1022 l 183 1022 l 40 1258 z "},"Ē":{"ha":542,"x_min":42,"x_max":517,"o":"m 42 0 l 42 969 l 513 969 l 513 726 l 313 726 l 313 599 l 475 599 l 475 381 l 313 381 l 313 243 l 515 243 l 515 0 l 42 0 m 44 1036 l 44 1211 l 517 1211 l 517 1036 l 44 1036 z "},"Ę":{"ha":542,"x_min":42,"x_max":515,"o":"m 42 0 l 42 969 l 513 969 l 513 726 l 313 726 l 313 599 l 475 599 l 475 381 l 313 381 l 313 243 l 515 243 l 515 0 q 457 -19 478 0 q 436 -61 436 -37 q 475 -96 436 -96 q 494 -93 485 -96 q 515 -86 504 -90 l 515 -232 q 468 -240 492 -237 q 425 -243 444 -243 q 290 -203 333 -243 q 247 -104 247 -162 q 289 0 247 -44 l 42 0 z "},"F":{"ha":486,"x_min":42,"x_max":464,"o":"m 42 0 l 42 969 l 464 969 l 464 713 l 313 713 l 313 574 l 451 574 l 451 333 l 313 333 l 313 0 l 42 0 z "},"G":{"ha":872,"x_min":14,"x_max":840,"o":"m 517 -14 q 246 48 358 -14 q 74 221 133 110 q 14 482 14 332 q 77 749 14 636 q 253 922 140 861 q 518 983 367 983 q 646 972 586 983 q 760 942 706 961 l 760 663 q 641 705 700 692 q 532 718 582 718 q 409 694 464 718 q 322 617 354 669 q 290 483 290 565 q 356 301 290 361 q 522 242 422 242 q 554 243 538 242 q 589 247 571 244 l 589 367 l 422 367 l 422 592 l 840 592 l 840 53 q 675 1 760 17 q 517 -14 590 -14 z "},"Ģ":{"ha":872,"x_min":14,"x_max":840,"o":"m 517 -14 q 246 48 358 -14 q 74 221 133 110 q 14 482 14 332 q 77 749 14 636 q 253 922 140 861 q 518 983 367 983 q 646 972 586 983 q 760 942 706 961 l 760 663 q 641 705 700 692 q 532 718 582 718 q 409 694 464 718 q 322 617 354 669 q 290 483 290 565 q 356 301 290 361 q 522 242 422 242 q 554 243 538 242 q 589 247 571 244 l 589 367 l 422 367 l 422 592 l 840 592 l 840 53 q 675 1 760 17 q 517 -14 590 -14 m 360 -243 l 388 -46 l 613 -46 l 550 -243 l 360 -243 z "},"H":{"ha":749,"x_min":42,"x_max":707,"o":"m 436 0 l 436 374 l 313 374 l 313 0 l 42 0 l 42 969 l 313 969 l 313 624 l 436 624 l 436 969 l 707 969 l 707 0 l 436 0 z "},"I":{"ha":354,"x_min":42,"x_max":313,"o":"m 42 0 l 42 969 l 313 969 l 313 0 l 42 0 z "},"Ĳ":{"ha":856,"x_min":42,"x_max":818,"o":"m 42 0 l 42 969 l 313 969 l 313 0 l 42 0 m 364 15 l 364 303 q 488 251 433 251 q 547 319 547 251 l 547 969 l 818 969 l 818 274 q 745 58 818 131 q 535 -14 672 -14 q 364 15 447 -14 z "},"Í":{"ha":354,"x_min":42,"x_max":417,"o":"m 42 0 l 42 969 l 313 969 l 313 0 l 42 0 m 67 1022 l 161 1258 l 417 1258 l 274 1022 l 67 1022 z "},"Î":{"ha":354,"x_min":-104,"x_max":457,"o":"m 42 0 l 42 969 l 313 969 l 313 0 l 42 0 m -104 1022 l 51 1258 l 304 1258 l 457 1022 l 242 1022 l 179 1121 l 176 1121 l 113 1022 l -104 1022 z "},"Ï":{"ha":354,"x_min":-83,"x_max":439,"o":"m 42 0 l 42 969 l 313 969 l 313 0 l 42 0 m -83 1119 q -52 1197 -83 1167 q 31 1228 -21 1228 q 115 1198 83 1228 q 146 1119 146 1168 q 115 1041 146 1072 q 31 1010 83 1010 q -52 1041 -21 1010 q -83 1119 -83 1072 m 210 1119 q 242 1197 210 1167 q 325 1228 274 1228 q 408 1198 376 1228 q 439 1119 439 1168 q 408 1041 439 1072 q 325 1010 376 1010 q 242 1041 274 1010 q 210 1119 210 1072 z "},"Ì":{"ha":354,"x_min":-62,"x_max":313,"o":"m 42 0 l 42 969 l 313 969 l 313 0 l 42 0 m -62 1258 l 197 1258 l 292 1022 l 81 1022 l -62 1258 z "},"Ī":{"ha":354,"x_min":-58,"x_max":414,"o":"m 42 0 l 42 969 l 313 969 l 313 0 l 42 0 m -58 1036 l -58 1211 l 414 1211 l 414 1036 l -58 1036 z "},"Į":{"ha":354,"x_min":42,"x_max":313,"o":"m 42 0 l 42 969 l 313 969 l 313 0 q 254 -19 275 0 q 233 -61 233 -37 q 272 -96 233 -96 q 292 -93 282 -96 q 313 -86 301 -90 l 313 -232 q 265 -240 289 -237 q 222 -243 242 -243 q 88 -203 131 -243 q 44 -104 44 -162 q 86 0 44 -44 l 42 0 z "},"J":{"ha":501,"x_min":10,"x_max":464,"o":"m 181 -14 q 10 15 93 -14 l 10 303 q 133 251 79 251 q 193 319 193 251 l 193 969 l 464 969 l 464 274 q 391 58 464 131 q 181 -14 318 -14 z "},"K":{"ha":735,"x_min":42,"x_max":753,"o":"m 42 0 l 42 969 l 313 969 l 313 590 l 317 590 l 461 969 l 753 969 l 551 529 q 663 447 625 507 q 700 292 700 386 l 700 0 l 426 0 l 426 263 q 408 342 426 317 q 347 367 389 367 l 313 367 l 313 0 l 42 0 z "},"Ķ":{"ha":735,"x_min":42,"x_max":753,"o":"m 42 0 l 42 969 l 313 969 l 313 590 l 317 590 l 461 969 l 753 969 l 551 529 q 663 447 625 507 q 700 292 700 386 l 700 0 l 426 0 l 426 263 q 408 342 426 317 q 347 367 389 367 l 313 367 l 313 0 l 42 0 m 229 -243 l 257 -46 l 482 -46 l 419 -243 l 229 -243 z "},"L":{"ha":463,"x_min":42,"x_max":450,"o":"m 42 0 l 42 969 l 313 969 l 313 253 l 450 253 l 450 0 l 42 0 z "},"Ĺ":{"ha":463,"x_min":42,"x_max":450,"o":"m 42 0 l 42 969 l 313 969 l 313 253 l 450 253 l 450 0 l 42 0 m 65 1022 l 160 1258 l 415 1258 l 272 1022 l 65 1022 z "},"Ľ":{"ha":463,"x_min":42,"x_max":574,"o":"m 42 0 l 42 969 l 313 969 l 313 253 l 450 253 l 450 0 l 42 0 m 367 814 l 367 1096 l 574 1096 l 519 814 l 367 814 z "},"Ļ":{"ha":463,"x_min":42,"x_max":450,"o":"m 42 0 l 42 969 l 313 969 l 313 253 l 450 253 l 450 0 l 42 0 m 111 -243 l 139 -46 l 364 -46 l 301 -243 l 111 -243 z "},"Ł":{"ha":506,"x_min":14,"x_max":493,"o":"m 14 364 l 14 599 l 85 625 l 85 969 l 356 969 l 356 729 l 474 774 l 474 540 l 356 494 l 356 253 l 493 253 l 493 0 l 85 0 l 85 392 l 14 364 z "},"M":{"ha":1142,"x_min":21,"x_max":1121,"o":"m 21 0 l 71 969 l 468 969 l 571 407 l 575 407 l 674 969 l 1071 969 l 1121 0 l 853 0 l 833 678 l 831 678 l 696 0 l 439 0 l 304 678 l 301 678 l 282 0 l 21 0 z "},"N":{"ha":799,"x_min":42,"x_max":757,"o":"m 42 0 l 42 969 l 367 969 l 538 382 l 540 382 l 532 969 l 757 969 l 757 0 l 433 0 l 263 589 l 260 589 l 268 0 l 42 0 z "},"Ń":{"ha":799,"x_min":42,"x_max":757,"o":"m 42 0 l 42 969 l 367 969 l 538 382 l 540 382 l 532 969 l 757 969 l 757 0 l 433 0 l 263 589 l 260 589 l 268 0 l 42 0 m 296 1022 l 390 1258 l 646 1258 l 503 1022 l 296 1022 z "},"Ň":{"ha":799,"x_min":42,"x_max":757,"o":"m 42 0 l 42 969 l 367 969 l 538 382 l 540 382 l 532 969 l 757 969 l 757 0 l 433 0 l 263 589 l 260 589 l 268 0 l 42 0 m 125 1258 l 340 1258 l 403 1158 l 406 1158 l 469 1258 l 686 1258 l 531 1022 l 278 1022 l 125 1258 z "},"Ņ":{"ha":799,"x_min":42,"x_max":757,"o":"m 42 0 l 42 969 l 367 969 l 538 382 l 540 382 l 532 969 l 757 969 l 757 0 l 433 0 l 263 589 l 260 589 l 268 0 l 42 0 m 265 -243 l 293 -46 l 518 -46 l 456 -243 l 265 -243 z "},"Ñ":{"ha":799,"x_min":42,"x_max":757,"o":"m 42 0 l 42 969 l 367 969 l 538 382 l 540 382 l 532 969 l 757 969 l 757 0 l 433 0 l 263 589 l 260 589 l 268 0 l 42 0 m 110 1022 q 163 1195 110 1139 q 297 1251 217 1251 q 381 1238 344 1251 q 447 1210 418 1224 q 499 1196 475 1196 q 534 1210 521 1196 q 550 1249 547 1225 l 704 1249 q 651 1076 704 1133 q 517 1019 599 1019 q 433 1034 469 1019 q 367 1063 396 1049 q 315 1076 339 1076 q 264 1022 271 1076 l 110 1022 z "},"Ŋ":{"ha":793,"x_min":42,"x_max":751,"o":"m 496 -194 q 413 -187 456 -194 q 332 -167 369 -181 l 332 114 q 429 69 385 69 q 469 101 469 69 q 458 143 469 118 l 267 565 l 264 565 l 272 0 l 42 0 l 42 969 l 325 969 l 525 513 l 528 513 l 521 969 l 751 969 l 751 111 q 690 -119 751 -44 q 496 -194 628 -194 z "},"O":{"ha":1028,"x_min":14,"x_max":1014,"o":"m 513 -14 q 251 49 363 -14 q 76 223 139 111 q 14 485 14 335 q 76 747 14 635 q 251 922 139 860 q 513 983 363 983 q 776 922 664 983 q 951 747 889 860 q 1014 485 1014 635 q 951 223 1014 335 q 776 49 889 111 q 513 -14 664 -14 m 310 485 q 367 326 310 388 q 514 264 424 264 q 662 326 604 264 q 719 485 719 388 q 662 644 719 583 q 514 706 604 706 q 367 644 424 706 q 310 485 310 583 z "},"Ó":{"ha":1028,"x_min":14,"x_max":1014,"o":"m 513 -14 q 251 49 363 -14 q 76 223 139 111 q 14 485 14 335 q 76 747 14 635 q 251 922 139 860 q 513 983 363 983 q 776 922 664 983 q 951 747 889 860 q 1014 485 1014 635 q 951 223 1014 335 q 776 49 889 111 q 513 -14 664 -14 m 310 485 q 367 326 310 388 q 514 264 424 264 q 662 326 604 264 q 719 485 719 388 q 662 644 719 583 q 514 706 604 706 q 367 644 424 706 q 310 485 310 583 m 401 1022 l 496 1258 l 751 1258 l 608 1022 l 401 1022 z "},"Ô":{"ha":1028,"x_min":14,"x_max":1014,"o":"m 513 -14 q 251 49 363 -14 q 76 223 139 111 q 14 485 14 335 q 76 747 14 635 q 251 922 139 860 q 513 983 363 983 q 776 922 664 983 q 951 747 889 860 q 1014 485 1014 635 q 951 223 1014 335 q 776 49 889 111 q 513 -14 664 -14 m 231 1022 l 386 1258 l 639 1258 l 792 1022 l 576 1022 l 514 1121 l 511 1121 l 447 1022 l 231 1022 m 310 485 q 367 326 310 388 q 514 264 424 264 q 662 326 604 264 q 719 485 719 388 q 662 644 719 583 q 514 706 604 706 q 367 644 424 706 q 310 485 310 583 z "},"Ö":{"ha":1028,"x_min":14,"x_max":1014,"o":"m 513 -14 q 251 49 363 -14 q 76 223 139 111 q 14 485 14 335 q 76 747 14 635 q 251 922 139 860 q 513 983 363 983 q 776 922 664 983 q 951 747 889 860 q 1014 485 1014 635 q 951 223 1014 335 q 776 49 889 111 q 513 -14 664 -14 m 251 1119 q 283 1197 251 1167 q 365 1228 314 1228 q 449 1198 418 1228 q 481 1119 481 1168 q 449 1041 481 1072 q 365 1010 418 1010 q 283 1041 314 1010 q 251 1119 251 1072 m 310 485 q 367 326 310 388 q 514 264 424 264 q 662 326 604 264 q 719 485 719 388 q 662 644 719 583 q 514 706 604 706 q 367 644 424 706 q 310 485 310 583 m 544 1119 q 576 1197 544 1167 q 660 1228 608 1228 q 742 1198 711 1228 q 774 1119 774 1168 q 742 1041 774 1072 q 660 1010 711 1010 q 576 1041 608 1010 q 544 1119 544 1072 z "},"Ò":{"ha":1028,"x_min":14,"x_max":1014,"o":"m 513 -14 q 251 49 363 -14 q 76 223 139 111 q 14 485 14 335 q 76 747 14 635 q 251 922 139 860 q 513 983 363 983 q 776 922 664 983 q 951 747 889 860 q 1014 485 1014 635 q 951 223 1014 335 q 776 49 889 111 q 513 -14 664 -14 m 272 1258 l 532 1258 l 626 1022 l 415 1022 l 272 1258 m 310 485 q 367 326 310 388 q 514 264 424 264 q 662 326 604 264 q 719 485 719 388 q 662 644 719 583 q 514 706 604 706 q 367 644 424 706 q 310 485 310 583 z "},"Ő":{"ha":1028,"x_min":14,"x_max":1014,"o":"m 513 -14 q 251 49 363 -14 q 76 223 139 111 q 14 485 14 335 q 76 747 14 635 q 251 922 139 860 q 513 983 363 983 q 776 922 664 983 q 951 747 889 860 q 1014 485 1014 635 q 951 223 1014 335 q 776 49 889 111 q 513 -14 664 -14 m 276 1022 l 358 1258 l 574 1258 l 463 1022 l 276 1022 m 310 485 q 367 326 310 388 q 514 264 424 264 q 662 326 604 264 q 719 485 719 388 q 662 644 719 583 q 514 706 604 706 q 367 644 424 706 q 310 485 310 583 m 544 1022 l 644 1258 l 867 1258 l 738 1022 l 544 1022 z "},"Ō":{"ha":1028,"x_min":14,"x_max":1014,"o":"m 513 -14 q 251 49 363 -14 q 76 223 139 111 q 14 485 14 335 q 76 747 14 635 q 251 922 139 860 q 513 983 363 983 q 776 922 664 983 q 951 747 889 860 q 1014 485 1014 635 q 951 223 1014 335 q 776 49 889 111 q 513 -14 664 -14 m 276 1036 l 276 1211 l 749 1211 l 749 1036 l 276 1036 m 310 485 q 367 326 310 388 q 514 264 424 264 q 662 326 604 264 q 719 485 719 388 q 662 644 719 583 q 514 706 604 706 q 367 644 424 706 q 310 485 310 583 z "},"Ø":{"ha":1028,"x_min":14,"x_max":1014,"o":"m 157 -65 l 36 38 l 128 147 q 44 298 74 213 q 14 485 14 383 q 76 747 14 635 q 251 922 139 860 q 513 983 363 983 q 654 967 588 983 q 776 921 721 951 l 871 1035 l 992 932 l 900 822 q 984 673 954 758 q 1014 485 1014 588 q 951 223 1014 335 q 776 49 889 111 q 513 -14 664 -14 q 373 2 439 -14 q 251 47 307 18 l 157 -65 m 292 485 q 315 371 292 422 l 597 707 q 514 722 558 722 q 399 692 450 722 q 320 609 349 663 q 292 485 292 556 m 432 263 q 472 253 451 257 q 514 249 492 249 q 629 278 579 249 q 708 360 679 307 q 738 485 738 414 q 714 600 738 549 l 432 263 z "},"Õ":{"ha":1028,"x_min":14,"x_max":1014,"o":"m 513 -14 q 251 49 363 -14 q 76 223 139 111 q 14 485 14 335 q 76 747 14 635 q 251 922 139 860 q 513 983 363 983 q 776 922 664 983 q 951 747 889 860 q 1014 485 1014 635 q 951 223 1014 335 q 776 49 889 111 q 513 -14 664 -14 m 215 1022 q 269 1195 215 1139 q 403 1251 322 1251 q 487 1238 450 1251 q 552 1210 524 1224 q 604 1196 581 1196 q 640 1210 626 1196 q 656 1249 653 1225 l 810 1249 q 757 1076 810 1133 q 622 1019 704 1019 q 538 1034 575 1019 q 473 1063 501 1049 q 421 1076 444 1076 q 369 1022 376 1076 l 215 1022 m 310 485 q 367 326 310 388 q 514 264 424 264 q 662 326 604 264 q 719 485 719 388 q 662 644 719 583 q 514 706 604 706 q 367 644 424 706 q 310 485 310 583 z "},"Œ":{"ha":1221,"x_min":14,"x_max":1194,"o":"m 496 -14 q 245 49 354 -14 q 75 223 136 111 q 14 485 14 335 q 75 747 14 635 q 245 922 136 860 q 496 983 354 983 q 657 958 586 983 q 781 886 728 933 l 783 886 l 783 969 l 1192 969 l 1192 726 l 992 726 l 992 599 l 1154 599 l 1154 381 l 990 381 l 990 243 l 1194 243 l 1194 0 l 783 0 l 783 83 l 781 83 q 657 11 728 36 q 496 -14 586 -14 m 310 485 q 367 326 310 388 q 514 264 424 264 q 662 326 604 264 q 719 485 719 388 q 662 644 719 583 q 514 706 604 706 q 367 644 424 706 q 310 485 310 583 z "},"P":{"ha":708,"x_min":42,"x_max":701,"o":"m 42 0 l 42 969 l 357 969 q 609 878 517 969 q 701 625 701 786 q 610 374 701 465 q 357 282 518 282 l 313 282 l 313 0 l 42 0 m 313 506 l 324 506 q 406 533 376 506 q 436 624 436 561 q 406 715 436 686 q 324 743 376 743 l 313 743 l 313 506 z "},"Þ":{"ha":708,"x_min":42,"x_max":701,"o":"m 42 0 l 42 969 l 313 969 l 313 850 l 363 850 q 612 758 522 850 q 701 501 701 665 q 612 245 701 338 q 363 153 522 153 l 313 153 l 313 0 l 42 0 m 313 376 l 324 376 q 406 404 376 376 q 436 499 436 432 q 406 594 436 565 q 324 622 376 622 l 313 622 l 313 376 z "},"Q":{"ha":1028,"x_min":14,"x_max":1014,"o":"m 701 -100 l 650 1 q 583 -10 618 -6 q 513 -14 549 -14 q 251 49 363 -14 q 76 223 139 111 q 14 485 14 335 q 76 747 14 635 q 251 922 139 860 q 513 983 363 983 q 776 922 664 983 q 951 747 889 860 q 1014 485 1014 635 q 971 264 1014 363 q 850 100 928 165 l 975 -100 l 701 -100 m 303 475 q 362 310 303 374 q 514 246 421 246 l 524 246 l 399 492 l 604 492 l 694 347 q 726 475 726 403 q 667 641 726 578 q 514 704 608 704 q 362 641 421 704 q 303 475 303 578 z "},"R":{"ha":729,"x_min":42,"x_max":704,"o":"m 42 0 l 42 969 l 425 969 q 630 902 556 969 q 704 711 704 835 q 664 566 704 622 q 560 486 624 510 l 560 483 q 700 271 700 450 l 700 0 l 426 0 l 426 276 q 408 353 426 331 q 350 375 390 375 l 313 375 l 313 0 l 42 0 m 313 600 l 360 600 q 417 622 397 600 q 438 681 438 644 q 417 738 438 717 q 360 760 397 760 l 313 760 l 313 600 z "},"Ŕ":{"ha":729,"x_min":42,"x_max":704,"o":"m 42 0 l 42 969 l 425 969 q 630 902 556 969 q 704 711 704 835 q 664 566 704 622 q 560 486 624 510 l 560 483 q 700 271 700 450 l 700 0 l 426 0 l 426 276 q 408 353 426 331 q 350 375 390 375 l 313 375 l 313 0 l 42 0 m 219 1022 l 314 1258 l 569 1258 l 426 1022 l 219 1022 m 313 600 l 360 600 q 417 622 397 600 q 438 681 438 644 q 417 738 438 717 q 360 760 397 760 l 313 760 l 313 600 z "},"Ř":{"ha":729,"x_min":42,"x_max":704,"o":"m 42 0 l 42 969 l 425 969 q 630 902 556 969 q 704 711 704 835 q 664 566 704 622 q 560 486 624 510 l 560 483 q 700 271 700 450 l 700 0 l 426 0 l 426 276 q 408 353 426 331 q 350 375 390 375 l 313 375 l 313 0 l 42 0 m 49 1258 l 264 1258 l 326 1158 l 329 1158 l 393 1258 l 610 1258 l 454 1022 l 201 1022 l 49 1258 m 313 600 l 360 600 q 417 622 397 600 q 438 681 438 644 q 417 738 438 717 q 360 760 397 760 l 313 760 l 313 600 z "},"Ŗ":{"ha":729,"x_min":42,"x_max":704,"o":"m 42 0 l 42 969 l 425 969 q 630 902 556 969 q 704 711 704 835 q 664 566 704 622 q 560 486 624 510 l 560 483 q 700 271 700 450 l 700 0 l 426 0 l 426 276 q 408 353 426 331 q 350 375 390 375 l 313 375 l 313 0 l 42 0 m 232 -243 l 260 -46 l 485 -46 l 422 -243 l 232 -243 m 313 600 l 360 600 q 417 622 397 600 q 438 681 438 644 q 417 738 438 717 q 360 760 397 760 l 313 760 l 313 600 z "},"S":{"ha":551,"x_min":15,"x_max":546,"o":"m 232 -14 q 124 -4 181 -14 q 19 22 67 6 l 19 325 q 203 247 139 247 q 242 258 226 247 q 257 296 257 269 q 248 332 257 315 q 219 368 239 349 l 121 471 q 40 585 64 524 q 15 710 15 646 q 97 911 15 839 q 311 983 178 983 q 395 976 351 983 q 486 954 439 969 l 486 700 q 403 740 440 724 q 339 756 367 756 q 290 714 290 756 q 322 654 290 688 l 415 556 q 515 424 485 488 q 546 281 546 360 q 462 64 546 142 q 232 -14 378 -14 z "},"Ś":{"ha":551,"x_min":15,"x_max":546,"o":"m 232 -14 q 124 -4 181 -14 q 19 22 67 6 l 19 325 q 203 247 139 247 q 242 258 226 247 q 257 296 257 269 q 248 332 257 315 q 219 368 239 349 l 121 471 q 40 585 64 524 q 15 710 15 646 q 97 911 15 839 q 311 983 178 983 q 395 976 351 983 q 486 954 439 969 l 486 700 q 403 740 440 724 q 339 756 367 756 q 290 714 290 756 q 322 654 290 688 l 415 556 q 515 424 485 488 q 546 281 546 360 q 462 64 546 142 q 232 -14 378 -14 m 154 1022 l 249 1258 l 504 1258 l 361 1022 l 154 1022 z "},"Š":{"ha":551,"x_min":-17,"x_max":546,"o":"m 232 -14 q 124 -4 181 -14 q 19 22 67 6 l 19 325 q 203 247 139 247 q 242 258 226 247 q 257 296 257 269 q 248 332 257 315 q 219 368 239 349 l 121 471 q 40 585 64 524 q 15 710 15 646 q 97 911 15 839 q 311 983 178 983 q 395 976 351 983 q 486 954 439 969 l 486 700 q 403 740 440 724 q 339 756 367 756 q 290 714 290 756 q 322 654 290 688 l 415 556 q 515 424 485 488 q 546 281 546 360 q 462 64 546 142 q 232 -14 378 -14 m -17 1258 l 199 1258 l 261 1158 l 264 1158 l 328 1258 l 544 1258 l 389 1022 l 136 1022 l -17 1258 z "},"Ş":{"ha":551,"x_min":15,"x_max":546,"o":"m 299 -215 l 74 -157 l 146 -8 q 80 5 113 -3 q 19 22 47 13 l 19 325 q 203 247 139 247 q 242 258 226 247 q 257 296 257 269 q 248 332 257 315 q 219 368 239 349 l 121 471 q 40 585 64 524 q 15 710 15 646 q 97 911 15 839 q 311 983 178 983 q 395 976 351 983 q 486 954 439 969 l 486 700 q 403 740 440 724 q 339 756 367 756 q 290 714 290 756 q 322 654 290 688 l 415 556 q 515 424 485 488 q 546 281 546 360 q 494 102 546 174 q 351 3 443 31 l 299 -215 z "},"ẞ":{"ha":828,"x_min":42,"x_max":813,"o":"m 472 -6 q 410 -2 440 -6 q 354 6 381 1 l 354 251 q 403 235 378 242 q 456 228 429 228 q 529 251 504 228 q 554 318 554 275 q 528 386 554 361 q 449 411 501 411 l 368 411 l 368 571 l 485 746 l 307 746 l 306 0 l 42 0 l 42 969 l 765 969 l 765 796 l 610 569 q 760 478 708 546 q 813 303 813 410 q 721 77 813 160 q 472 -6 629 -6 z "},"T":{"ha":521,"x_min":13,"x_max":508,"o":"m 125 0 l 125 717 l 13 717 l 13 969 l 508 969 l 508 717 l 396 717 l 396 0 l 125 0 z "},"Ŧ":{"ha":521,"x_min":13,"x_max":508,"o":"m 125 0 l 125 379 l 49 379 l 49 599 l 125 599 l 125 726 l 13 726 l 13 969 l 508 969 l 508 726 l 396 726 l 396 599 l 472 599 l 472 379 l 396 379 l 396 0 l 125 0 z "},"Ť":{"ha":521,"x_min":-21,"x_max":540,"o":"m 125 0 l 125 717 l 13 717 l 13 969 l 508 969 l 508 717 l 396 717 l 396 0 l 125 0 m -21 1258 l 194 1258 l 257 1158 l 260 1158 l 324 1258 l 540 1258 l 385 1022 l 132 1022 l -21 1258 z "},"Ţ":{"ha":521,"x_min":13,"x_max":508,"o":"m 13 717 l 13 969 l 508 969 l 508 717 l 396 717 l 396 0 l 289 0 l 238 -215 l 13 -157 l 125 76 l 125 717 l 13 717 z "},"U":{"ha":740,"x_min":38,"x_max":703,"o":"m 371 -14 q 124 71 211 -14 q 38 308 38 156 l 38 969 l 310 969 l 310 313 q 371 242 310 242 q 432 313 432 242 l 432 969 l 703 969 l 703 308 q 617 71 703 156 q 371 -14 532 -14 z "},"Ú":{"ha":740,"x_min":38,"x_max":703,"o":"m 371 -14 q 124 71 211 -14 q 38 308 38 156 l 38 969 l 310 969 l 310 313 q 371 242 310 242 q 432 313 432 242 l 432 969 l 703 969 l 703 308 q 617 71 703 156 q 371 -14 532 -14 m 260 1022 l 354 1258 l 610 1258 l 467 1022 l 260 1022 z "},"Û":{"ha":740,"x_min":38,"x_max":703,"o":"m 371 -14 q 124 71 211 -14 q 38 308 38 156 l 38 969 l 310 969 l 310 313 q 371 242 310 242 q 432 313 432 242 l 432 969 l 703 969 l 703 308 q 617 71 703 156 q 371 -14 532 -14 m 89 1022 l 244 1258 l 497 1258 l 650 1022 l 435 1022 l 372 1121 l 369 1121 l 306 1022 l 89 1022 z "},"Ü":{"ha":740,"x_min":38,"x_max":703,"o":"m 371 -14 q 124 71 211 -14 q 38 308 38 156 l 38 969 l 310 969 l 310 313 q 371 242 310 242 q 432 313 432 242 l 432 969 l 703 969 l 703 308 q 617 71 703 156 q 371 -14 532 -14 m 110 1119 q 141 1197 110 1167 q 224 1228 172 1228 q 308 1198 276 1228 q 339 1119 339 1168 q 308 1041 339 1072 q 224 1010 276 1010 q 141 1041 172 1010 q 110 1119 110 1072 m 403 1119 q 435 1197 403 1167 q 518 1228 467 1228 q 601 1198 569 1228 q 632 1119 632 1168 q 601 1041 632 1072 q 518 1010 569 1010 q 435 1041 467 1010 q 403 1119 403 1072 z "},"Ù":{"ha":740,"x_min":38,"x_max":703,"o":"m 371 -14 q 124 71 211 -14 q 38 308 38 156 l 38 969 l 310 969 l 310 313 q 371 242 310 242 q 432 313 432 242 l 432 969 l 703 969 l 703 308 q 617 71 703 156 q 371 -14 532 -14 m 131 1258 l 390 1258 l 485 1022 l 274 1022 l 131 1258 z "},"Ű":{"ha":740,"x_min":38,"x_max":725,"o":"m 371 -14 q 124 71 211 -14 q 38 308 38 156 l 38 969 l 310 969 l 310 313 q 371 242 310 242 q 432 313 432 242 l 432 969 l 703 969 l 703 308 q 617 71 703 156 q 371 -14 532 -14 m 135 1022 l 217 1258 l 432 1258 l 321 1022 l 135 1022 m 403 1022 l 503 1258 l 725 1258 l 596 1022 l 403 1022 z "},"Ū":{"ha":740,"x_min":38,"x_max":703,"o":"m 371 -14 q 124 71 211 -14 q 38 308 38 156 l 38 969 l 310 969 l 310 313 q 371 242 310 242 q 432 313 432 242 l 432 969 l 703 969 l 703 308 q 617 71 703 156 q 371 -14 532 -14 m 135 1036 l 135 1211 l 607 1211 l 607 1036 l 135 1036 z "},"Ų":{"ha":740,"x_min":38,"x_max":703,"o":"m 396 -243 q 261 -203 304 -243 q 218 -104 218 -162 q 260 -1 218 -46 q 94 106 151 26 q 38 308 38 185 l 38 969 l 310 969 l 310 313 q 371 242 310 242 q 432 313 432 242 l 432 969 l 703 969 l 703 308 q 636 92 703 174 q 444 -8 569 10 q 417 -31 426 -17 q 407 -61 407 -46 q 446 -96 407 -96 q 465 -93 456 -96 q 486 -86 475 -90 l 486 -232 q 439 -240 463 -237 q 396 -243 415 -243 z "},"Ů":{"ha":740,"x_min":38,"x_max":703,"o":"m 371 -14 q 124 71 211 -14 q 38 308 38 156 l 38 969 l 310 969 l 310 313 q 371 242 310 242 q 432 313 432 242 l 432 969 l 703 969 l 703 308 q 617 71 703 156 q 371 -14 532 -14 m 199 1172 q 247 1289 199 1243 q 371 1335 296 1335 q 494 1289 446 1335 q 543 1172 543 1243 q 494 1056 543 1101 q 371 1011 446 1011 q 247 1056 296 1011 q 199 1172 199 1101 m 317 1172 q 332 1133 317 1149 q 371 1118 347 1118 q 410 1133 394 1118 q 425 1172 425 1149 q 410 1211 425 1196 q 371 1226 394 1226 q 332 1211 347 1226 q 317 1172 317 1196 z "},"V":{"ha":650,"x_min":-8,"x_max":660,"o":"m 131 0 l -8 969 l 261 969 l 325 264 l 329 264 l 396 969 l 660 969 l 522 0 l 131 0 z "},"W":{"ha":1160,"x_min":0,"x_max":1161,"o":"m 103 0 l 0 969 l 268 969 l 318 285 l 321 285 l 429 969 l 733 969 l 840 285 l 844 285 l 894 969 l 1161 969 l 1053 0 l 668 0 l 579 624 l 576 624 l 486 0 l 103 0 z "},"Ẃ":{"ha":1160,"x_min":0,"x_max":1161,"o":"m 103 0 l 0 969 l 268 969 l 318 285 l 321 285 l 429 969 l 733 969 l 840 285 l 844 285 l 894 969 l 1161 969 l 1053 0 l 668 0 l 579 624 l 576 624 l 486 0 l 103 0 m 471 1022 l 565 1258 l 821 1258 l 678 1022 l 471 1022 z "},"Ŵ":{"ha":1160,"x_min":0,"x_max":1161,"o":"m 103 0 l 0 969 l 268 969 l 318 285 l 321 285 l 429 969 l 733 969 l 840 285 l 844 285 l 894 969 l 1161 969 l 1053 0 l 668 0 l 579 624 l 576 624 l 486 0 l 103 0 m 300 1022 l 456 1258 l 708 1258 l 861 1022 l 646 1022 l 583 1121 l 581 1121 l 517 1022 l 300 1022 z "},"Ẅ":{"ha":1160,"x_min":0,"x_max":1161,"o":"m 103 0 l 0 969 l 268 969 l 318 285 l 321 285 l 429 969 l 733 969 l 840 285 l 844 285 l 894 969 l 1161 969 l 1053 0 l 668 0 l 579 624 l 576 624 l 486 0 l 103 0 m 321 1119 q 352 1197 321 1167 q 435 1228 383 1228 q 519 1198 488 1228 q 550 1119 550 1168 q 519 1041 550 1072 q 435 1010 488 1010 q 352 1041 383 1010 q 321 1119 321 1072 m 614 1119 q 646 1197 614 1167 q 729 1228 678 1228 q 812 1198 781 1228 q 843 1119 843 1168 q 812 1041 843 1072 q 729 1010 781 1010 q 646 1041 678 1010 q 614 1119 614 1072 z "},"Ẁ":{"ha":1160,"x_min":0,"x_max":1161,"o":"m 103 0 l 0 969 l 268 969 l 318 285 l 321 285 l 429 969 l 733 969 l 840 285 l 844 285 l 894 969 l 1161 969 l 1053 0 l 668 0 l 579 624 l 576 624 l 486 0 l 103 0 m 342 1258 l 601 1258 l 696 1022 l 485 1022 l 342 1258 z "},"X":{"ha":692,"x_min":-10,"x_max":699,"o":"m -10 0 l 174 511 l -7 969 l 288 969 l 356 707 l 360 707 l 432 969 l 699 969 l 517 482 l 699 0 l 403 0 l 333 276 l 329 276 l 257 0 l -10 0 z "},"Y":{"ha":651,"x_min":-19,"x_max":671,"o":"m 182 0 l 182 271 l -19 969 l 253 969 l 326 554 l 331 554 l 407 969 l 671 969 l 469 258 l 469 0 l 182 0 z "},"Ý":{"ha":651,"x_min":-19,"x_max":671,"o":"m 182 0 l 182 271 l -19 969 l 253 969 l 326 554 l 331 554 l 407 969 l 671 969 l 469 258 l 469 0 l 182 0 m 217 1022 l 311 1258 l 567 1258 l 424 1022 l 217 1022 z "},"Ŷ":{"ha":651,"x_min":-19,"x_max":671,"o":"m 182 0 l 182 271 l -19 969 l 253 969 l 326 554 l 331 554 l 407 969 l 671 969 l 469 258 l 469 0 l 182 0 m 46 1022 l 201 1258 l 454 1258 l 607 1022 l 392 1022 l 329 1121 l 326 1121 l 263 1022 l 46 1022 z "},"Ÿ":{"ha":651,"x_min":-19,"x_max":671,"o":"m 182 0 l 182 271 l -19 969 l 253 969 l 326 554 l 331 554 l 407 969 l 671 969 l 469 258 l 469 0 l 182 0 m 67 1119 q 98 1197 67 1167 q 181 1228 129 1228 q 265 1198 233 1228 q 296 1119 296 1168 q 265 1041 296 1072 q 181 1010 233 1010 q 98 1041 129 1010 q 67 1119 67 1072 m 360 1119 q 392 1197 360 1167 q 475 1228 424 1228 q 558 1198 526 1228 q 589 1119 589 1168 q 558 1041 589 1072 q 475 1010 526 1010 q 392 1041 424 1010 q 360 1119 360 1072 z "},"Ỳ":{"ha":651,"x_min":-19,"x_max":671,"o":"m 182 0 l 182 271 l -19 969 l 253 969 l 326 554 l 331 554 l 407 969 l 671 969 l 469 258 l 469 0 l 182 0 m 88 1258 l 347 1258 l 442 1022 l 231 1022 l 88 1258 z "},"Z":{"ha":583,"x_min":11,"x_max":572,"o":"m 11 0 l 11 157 l 250 726 l 32 726 l 32 969 l 572 969 l 572 813 l 335 243 l 561 243 l 561 0 l 11 0 z "},"Ź":{"ha":583,"x_min":11,"x_max":572,"o":"m 11 0 l 11 157 l 250 726 l 32 726 l 32 969 l 572 969 l 572 813 l 335 243 l 561 243 l 561 0 l 11 0 m 188 1022 l 282 1258 l 538 1258 l 394 1022 l 188 1022 z "},"Ž":{"ha":583,"x_min":11,"x_max":578,"o":"m 11 0 l 11 157 l 250 726 l 32 726 l 32 969 l 572 969 l 572 813 l 335 243 l 561 243 l 561 0 l 11 0 m 17 1258 l 232 1258 l 294 1158 l 297 1158 l 361 1258 l 578 1258 l 422 1022 l 169 1022 l 17 1258 z "},"Ż":{"ha":583,"x_min":11,"x_max":572,"o":"m 11 0 l 11 157 l 250 726 l 32 726 l 32 969 l 572 969 l 572 813 l 335 243 l 561 243 l 561 0 l 11 0 m 156 1142 q 194 1235 156 1200 q 299 1271 232 1271 q 403 1235 365 1271 q 442 1142 442 1200 q 403 1049 442 1083 q 299 1014 365 1014 q 194 1049 233 1014 q 156 1142 156 1083 z "},"a":{"ha":682,"x_min":10,"x_max":651,"o":"m 251 -8 q 76 60 142 -8 q 10 246 10 128 q 76 431 10 365 q 251 496 143 496 q 329 486 293 496 q 394 460 365 476 l 397 460 l 397 469 q 361 548 397 519 q 260 576 325 576 q 164 563 211 576 q 79 528 117 549 l 79 729 q 202 763 138 751 q 329 774 267 774 q 568 699 485 774 q 651 471 651 624 l 651 0 l 414 0 l 414 44 l 411 44 q 251 -8 350 -8 m 251 250 q 274 190 251 213 q 331 168 296 168 q 387 190 365 168 q 408 250 408 213 q 387 309 408 286 q 331 332 365 332 q 274 309 296 332 q 251 250 251 286 z "},"á":{"ha":682,"x_min":10,"x_max":651,"o":"m 251 -8 q 76 60 142 -8 q 10 246 10 128 q 76 431 10 365 q 251 496 143 496 q 329 486 293 496 q 394 460 365 476 l 397 460 l 397 469 q 361 548 397 519 q 260 576 325 576 q 164 563 211 576 q 79 528 117 549 l 79 729 q 202 763 138 751 q 329 774 267 774 q 568 699 485 774 q 651 471 651 624 l 651 0 l 414 0 l 414 44 l 411 44 q 251 -8 350 -8 m 238 815 l 332 1051 l 588 1051 l 444 815 l 238 815 m 251 250 q 274 190 251 213 q 331 168 296 168 q 387 190 365 168 q 408 250 408 213 q 387 309 408 286 q 331 332 365 332 q 274 309 296 332 q 251 250 251 286 z "},"ă":{"ha":682,"x_min":10,"x_max":651,"o":"m 251 -8 q 76 60 142 -8 q 10 246 10 128 q 76 431 10 365 q 251 496 143 496 q 329 486 293 496 q 394 460 365 476 l 397 460 l 397 469 q 361 548 397 519 q 260 576 325 576 q 164 563 211 576 q 79 528 117 549 l 79 729 q 202 763 138 751 q 329 774 267 774 q 568 699 485 774 q 651 471 651 624 l 651 0 l 414 0 l 414 44 l 411 44 q 251 -8 350 -8 m 96 1051 l 265 1051 q 346 976 279 976 q 428 1051 414 976 l 599 1051 q 525 872 593 938 q 346 807 457 807 q 168 872 235 807 q 96 1051 101 938 m 251 250 q 274 190 251 213 q 331 168 296 168 q 387 190 365 168 q 408 250 408 213 q 387 309 408 286 q 331 332 365 332 q 274 309 296 332 q 251 250 251 286 z "},"â":{"ha":682,"x_min":10,"x_max":651,"o":"m 251 -8 q 76 60 142 -8 q 10 246 10 128 q 76 431 10 365 q 251 496 143 496 q 329 486 293 496 q 394 460 365 476 l 397 460 l 397 469 q 361 548 397 519 q 260 576 325 576 q 164 563 211 576 q 79 528 117 549 l 79 729 q 202 763 138 751 q 329 774 267 774 q 568 699 485 774 q 651 471 651 624 l 651 0 l 414 0 l 414 44 l 411 44 q 251 -8 350 -8 m 67 815 l 222 1051 l 475 1051 l 628 815 l 413 815 l 350 914 l 347 914 l 283 815 l 67 815 m 251 250 q 274 190 251 213 q 331 168 296 168 q 387 190 365 168 q 408 250 408 213 q 387 309 408 286 q 331 332 365 332 q 274 309 296 332 q 251 250 251 286 z "},"ä":{"ha":682,"x_min":10,"x_max":651,"o":"m 251 -8 q 76 60 142 -8 q 10 246 10 128 q 76 431 10 365 q 251 496 143 496 q 329 486 293 496 q 394 460 365 476 l 397 460 l 397 469 q 361 548 397 519 q 260 576 325 576 q 164 563 211 576 q 79 528 117 549 l 79 729 q 202 763 138 751 q 329 774 267 774 q 568 699 485 774 q 651 471 651 624 l 651 0 l 414 0 l 414 44 l 411 44 q 251 -8 350 -8 m 88 913 q 119 990 88 960 q 201 1021 150 1021 q 285 991 254 1021 q 317 913 317 961 q 285 834 317 865 q 201 803 254 803 q 119 834 150 803 q 88 913 88 865 m 251 250 q 274 190 251 213 q 331 168 296 168 q 387 190 365 168 q 408 250 408 213 q 387 309 408 286 q 331 332 365 332 q 274 309 296 332 q 251 250 251 286 m 381 913 q 413 990 381 960 q 496 1021 444 1021 q 578 991 547 1021 q 610 913 610 961 q 578 834 610 865 q 496 803 547 803 q 413 834 444 803 q 381 913 381 865 z "},"à":{"ha":682,"x_min":10,"x_max":651,"o":"m 251 -8 q 76 60 142 -8 q 10 246 10 128 q 76 431 10 365 q 251 496 143 496 q 329 486 293 496 q 394 460 365 476 l 397 460 l 397 469 q 361 548 397 519 q 260 576 325 576 q 164 563 211 576 q 79 528 117 549 l 79 729 q 202 763 138 751 q 329 774 267 774 q 568 699 485 774 q 651 471 651 624 l 651 0 l 414 0 l 414 44 l 411 44 q 251 -8 350 -8 m 108 1051 l 368 1051 l 463 815 l 251 815 l 108 1051 m 251 250 q 274 190 251 213 q 331 168 296 168 q 387 190 365 168 q 408 250 408 213 q 387 309 408 286 q 331 332 365 332 q 274 309 296 332 q 251 250 251 286 z "},"ā":{"ha":682,"x_min":10,"x_max":651,"o":"m 251 -8 q 76 60 142 -8 q 10 246 10 128 q 76 431 10 365 q 251 496 143 496 q 329 486 293 496 q 394 460 365 476 l 397 460 l 397 469 q 361 548 397 519 q 260 576 325 576 q 164 563 211 576 q 79 528 117 549 l 79 729 q 202 763 138 751 q 329 774 267 774 q 568 699 485 774 q 651 471 651 624 l 651 0 l 414 0 l 414 44 l 411 44 q 251 -8 350 -8 m 113 829 l 113 1004 l 585 1004 l 585 829 l 113 829 m 251 250 q 274 190 251 213 q 331 168 296 168 q 387 190 365 168 q 408 250 408 213 q 387 309 408 286 q 331 332 365 332 q 274 309 296 332 q 251 250 251 286 z "},"ą":{"ha":682,"x_min":10,"x_max":651,"o":"m 251 -8 q 76 60 142 -8 q 10 246 10 128 q 76 431 10 365 q 251 496 143 496 q 329 486 293 496 q 394 460 365 476 l 397 460 l 397 469 q 361 548 397 519 q 260 576 325 576 q 164 563 211 576 q 79 528 117 549 l 79 729 q 202 763 138 751 q 329 774 267 774 q 568 699 485 774 q 651 471 651 624 l 651 0 l 633 0 q 575 -19 596 0 q 554 -61 554 -37 q 593 -96 554 -96 q 613 -93 603 -96 q 633 -86 622 -90 l 633 -232 q 586 -240 610 -237 q 543 -243 563 -243 q 408 -203 451 -243 q 365 -104 365 -162 q 378 -43 365 -71 q 414 7 392 -15 l 414 44 l 411 44 q 251 -8 350 -8 m 251 250 q 274 190 251 213 q 331 168 296 168 q 387 190 365 168 q 408 250 408 213 q 387 309 408 286 q 331 332 365 332 q 274 309 296 332 q 251 250 251 286 z "},"å":{"ha":682,"x_min":10,"x_max":651,"o":"m 251 -8 q 76 60 142 -8 q 10 246 10 128 q 76 431 10 365 q 251 496 143 496 q 329 486 293 496 q 394 460 365 476 l 397 460 l 397 469 q 361 548 397 519 q 260 576 325 576 q 164 563 211 576 q 79 528 117 549 l 79 729 q 202 763 138 751 q 329 774 267 774 q 568 699 485 774 q 651 471 651 624 l 651 0 l 414 0 l 414 44 l 411 44 q 251 -8 350 -8 m 176 965 q 225 1082 176 1036 q 349 1128 274 1128 q 472 1082 424 1128 q 521 965 521 1036 q 472 849 521 894 q 349 804 424 804 q 225 849 274 804 q 176 965 176 894 m 251 250 q 274 190 251 213 q 331 168 296 168 q 387 190 365 168 q 408 250 408 213 q 387 309 408 286 q 331 332 365 332 q 274 309 296 332 q 251 250 251 286 m 294 965 q 310 926 294 942 q 349 911 325 911 q 388 926 372 911 q 403 965 403 942 q 388 1004 403 989 q 349 1019 372 1019 q 310 1004 325 1019 q 294 965 294 989 z "},"ã":{"ha":682,"x_min":10,"x_max":651,"o":"m 251 -8 q 76 60 142 -8 q 10 246 10 128 q 76 431 10 365 q 251 496 143 496 q 329 486 293 496 q 394 460 365 476 l 397 460 l 397 469 q 361 548 397 519 q 260 576 325 576 q 164 563 211 576 q 79 528 117 549 l 79 729 q 202 763 138 751 q 329 774 267 774 q 568 699 485 774 q 651 471 651 624 l 651 0 l 414 0 l 414 44 l 411 44 q 251 -8 350 -8 m 51 815 q 105 988 51 932 q 239 1044 158 1044 q 323 1031 286 1044 q 388 1003 360 1017 q 440 989 417 989 q 476 1003 463 989 q 492 1042 489 1018 l 646 1042 q 593 869 646 926 q 458 813 540 813 q 374 827 411 813 q 309 856 338 842 q 257 869 281 869 q 206 815 213 869 l 51 815 m 251 250 q 274 190 251 213 q 331 168 296 168 q 387 190 365 168 q 408 250 408 213 q 387 309 408 286 q 331 332 365 332 q 274 309 296 332 q 251 250 251 286 z "},"æ":{"ha":1160,"x_min":10,"x_max":1161,"o":"m 832 -11 q 518 104 618 -11 l 515 104 q 410 20 472 49 q 271 -8 347 -8 q 80 60 150 -8 q 10 246 10 128 q 76 431 10 365 q 251 496 143 496 q 329 486 293 496 q 394 460 365 476 l 397 460 l 397 469 q 361 548 397 519 q 260 576 325 576 q 163 563 210 576 q 79 528 117 549 l 79 729 q 202 763 136 751 q 329 774 268 774 q 563 690 488 774 l 565 690 q 796 772 651 772 q 1003 717 918 772 q 1125 556 1089 661 q 1132 306 1161 451 l 657 306 q 731 225 679 249 q 846 201 782 201 q 967 219 910 201 q 1071 267 1024 238 l 1071 35 q 953 -1 1017 10 q 832 -11 890 -11 m 251 250 q 274 191 251 214 q 331 168 296 168 q 388 191 367 168 q 410 250 410 214 q 388 309 410 286 q 331 332 367 332 q 274 309 296 332 q 251 250 251 286 m 654 471 l 907 471 q 867 549 901 524 q 786 574 832 574 q 703 546 736 574 q 654 471 669 518 z "},"b":{"ha":807,"x_min":36,"x_max":792,"o":"m 463 -7 q 357 9 407 -7 q 269 60 307 25 l 267 60 l 267 0 l 36 0 l 36 1004 l 290 1004 l 290 721 l 293 721 q 372 758 329 746 q 463 769 415 769 q 630 722 556 769 q 748 588 704 675 q 792 381 792 500 q 750 176 792 264 q 635 41 708 89 q 463 -7 561 -7 m 275 383 q 313 274 275 313 q 403 236 351 236 q 492 274 456 236 q 529 383 529 313 q 492 492 529 454 q 403 531 456 531 q 313 493 351 531 q 275 383 275 456 z "},"c":{"ha":518,"x_min":14,"x_max":499,"o":"m 397 -8 q 199 38 286 -8 q 63 172 113 85 q 14 381 14 260 q 63 589 14 501 q 199 723 113 676 q 397 769 286 769 q 447 767 421 769 q 499 758 472 764 l 499 507 q 419 524 460 524 q 322 487 364 524 q 279 381 279 450 q 322 274 279 311 q 419 238 364 238 q 499 254 460 238 l 499 3 q 447 -6 472 -3 q 397 -8 421 -8 z "},"ć":{"ha":518,"x_min":14,"x_max":550,"o":"m 397 -8 q 199 38 286 -8 q 63 172 113 85 q 14 381 14 260 q 63 589 14 501 q 199 723 113 676 q 397 769 286 769 q 447 767 421 769 q 499 758 472 764 l 499 507 q 419 524 460 524 q 322 487 364 524 q 279 381 279 450 q 322 274 279 311 q 419 238 364 238 q 499 254 460 238 l 499 3 q 447 -6 472 -3 q 397 -8 421 -8 m 200 815 l 294 1051 l 550 1051 l 407 815 l 200 815 z "},"č":{"ha":518,"x_min":14,"x_max":590,"o":"m 397 -8 q 199 38 286 -8 q 63 172 113 85 q 14 381 14 260 q 63 589 14 501 q 199 723 113 676 q 397 769 286 769 q 447 767 421 769 q 499 758 472 764 l 499 507 q 419 524 460 524 q 322 487 364 524 q 279 381 279 450 q 322 274 279 311 q 419 238 364 238 q 499 254 460 238 l 499 3 q 447 -6 472 -3 q 397 -8 421 -8 m 29 1051 l 244 1051 l 307 951 l 310 951 l 374 1051 l 590 1051 l 435 815 l 182 815 l 29 1051 z "},"ç":{"ha":518,"x_min":14,"x_max":499,"o":"m 397 -8 l 396 -8 l 346 -215 l 121 -157 l 213 32 q 67 165 121 76 q 14 381 14 254 q 63 589 14 501 q 199 723 113 676 q 397 769 286 769 q 447 767 421 769 q 499 758 472 764 l 499 507 q 419 524 460 524 q 322 487 364 524 q 279 381 279 450 q 322 274 279 311 q 419 238 364 238 q 499 254 460 238 l 499 3 q 447 -6 472 -3 q 397 -8 421 -8 z "},"d":{"ha":807,"x_min":15,"x_max":772,"o":"m 346 -7 q 173 41 247 -7 q 57 176 99 89 q 15 381 15 264 q 59 588 15 500 q 177 722 103 675 q 344 769 251 769 q 435 758 392 769 q 515 721 478 746 l 518 721 l 518 1004 l 772 1004 l 772 0 l 540 0 l 540 60 l 538 60 q 450 9 500 25 q 346 -7 400 -7 m 278 383 q 315 274 278 313 q 404 236 353 236 q 494 274 457 236 q 532 383 532 313 q 494 493 532 456 q 404 531 457 531 q 315 492 353 531 q 278 383 278 454 z "},"ð":{"ha":808,"x_min":14,"x_max":794,"o":"m 404 -12 q 199 37 288 -12 q 63 171 111 86 q 14 364 14 256 q 61 544 14 468 q 187 663 108 621 q 361 704 265 704 q 440 694 403 704 l 442 696 q 375 779 413 738 l 101 717 l 67 846 l 263 890 q 199 947 232 918 q 131 1004 167 975 l 446 1004 q 476 976 461 990 q 506 947 492 963 l 690 989 l 725 860 l 607 833 q 656 767 633 801 q 699 699 679 733 q 794 378 794 532 q 746 173 794 261 q 610 36 697 85 q 404 -12 522 -12 m 276 374 q 313 276 276 314 q 404 239 349 239 q 495 277 460 239 q 531 374 531 315 q 495 469 531 432 q 404 506 460 506 q 313 469 349 506 q 276 374 276 432 z "},"ď":{"ha":807,"x_min":15,"x_max":1029,"o":"m 346 -7 q 173 41 247 -7 q 57 176 99 89 q 15 381 15 264 q 59 588 15 500 q 177 722 103 675 q 344 769 251 769 q 435 758 392 769 q 515 721 478 746 l 518 721 l 518 1004 l 772 1004 l 772 0 l 540 0 l 540 60 l 538 60 q 450 9 500 25 q 346 -7 400 -7 m 278 383 q 315 274 278 313 q 404 236 353 236 q 494 274 457 236 q 532 383 532 313 q 494 493 532 456 q 404 531 457 531 q 315 492 353 531 q 278 383 278 454 m 822 814 l 822 1096 l 1029 1096 l 975 814 l 822 814 z "},"đ":{"ha":840,"x_min":15,"x_max":836,"o":"m 322 803 l 322 953 l 529 953 l 529 1017 l 772 1017 l 772 953 l 836 953 l 836 803 l 772 803 l 772 0 l 540 0 l 540 60 l 538 60 q 450 9 500 25 q 346 -7 400 -7 q 173 41 247 -7 q 57 176 99 89 q 15 381 15 264 q 59 588 15 500 q 178 722 103 675 q 346 769 253 769 q 526 715 450 769 l 529 715 l 529 803 l 322 803 m 278 383 q 315 274 278 313 q 404 236 353 236 q 494 274 457 236 q 532 383 532 313 q 494 493 532 456 q 404 531 457 531 q 315 492 353 531 q 278 383 278 454 z "},"e":{"ha":769,"x_min":14,"x_max":771,"o":"m 439 -11 q 206 38 301 -11 q 63 175 111 86 q 14 382 14 264 q 61 590 14 503 q 195 725 108 678 q 399 772 282 772 q 613 717 525 772 q 735 558 700 661 q 743 307 771 454 l 271 307 q 344 229 294 251 q 457 207 394 207 q 683 269 581 207 l 683 36 q 563 0 628 11 q 439 -11 499 -11 m 268 474 l 517 474 q 476 549 511 525 q 397 574 442 574 q 316 547 349 574 q 268 474 283 519 z "},"é":{"ha":769,"x_min":14,"x_max":771,"o":"m 439 -11 q 206 38 301 -11 q 63 175 111 86 q 14 382 14 264 q 61 590 14 503 q 195 725 108 678 q 399 772 282 772 q 613 717 525 772 q 735 558 700 661 q 743 307 771 454 l 271 307 q 344 229 294 251 q 457 207 394 207 q 683 269 581 207 l 683 36 q 563 0 628 11 q 439 -11 499 -11 m 268 474 l 517 474 q 476 549 511 525 q 397 574 442 574 q 316 547 349 574 q 268 474 283 519 m 290 815 l 385 1051 l 640 1051 l 497 815 l 290 815 z "},"ě":{"ha":769,"x_min":14,"x_max":771,"o":"m 439 -11 q 206 38 301 -11 q 63 175 111 86 q 14 382 14 264 q 61 590 14 503 q 195 725 108 678 q 399 772 282 772 q 613 717 525 772 q 735 558 700 661 q 743 307 771 454 l 271 307 q 344 229 294 251 q 457 207 394 207 q 683 269 581 207 l 683 36 q 563 0 628 11 q 439 -11 499 -11 m 119 1051 l 335 1051 l 397 951 l 400 951 l 464 1051 l 681 1051 l 525 815 l 272 815 l 119 1051 m 268 474 l 517 474 q 476 549 511 525 q 397 574 442 574 q 316 547 349 574 q 268 474 283 519 z "},"ê":{"ha":769,"x_min":14,"x_max":771,"o":"m 439 -11 q 206 38 301 -11 q 63 175 111 86 q 14 382 14 264 q 61 590 14 503 q 195 725 108 678 q 399 772 282 772 q 613 717 525 772 q 735 558 700 661 q 743 307 771 454 l 271 307 q 344 229 294 251 q 457 207 394 207 q 683 269 581 207 l 683 36 q 563 0 628 11 q 439 -11 499 -11 m 119 815 l 275 1051 l 528 1051 l 681 815 l 465 815 l 403 914 l 400 914 l 336 815 l 119 815 m 268 474 l 517 474 q 476 549 511 525 q 397 574 442 574 q 316 547 349 574 q 268 474 283 519 z "},"ë":{"ha":769,"x_min":14,"x_max":771,"o":"m 439 -11 q 206 38 301 -11 q 63 175 111 86 q 14 382 14 264 q 61 590 14 503 q 195 725 108 678 q 399 772 282 772 q 613 717 525 772 q 735 558 700 661 q 743 307 771 454 l 271 307 q 344 229 294 251 q 457 207 394 207 q 683 269 581 207 l 683 36 q 563 0 628 11 q 439 -11 499 -11 m 140 913 q 172 990 140 960 q 254 1021 203 1021 q 338 991 307 1021 q 369 913 369 961 q 338 834 369 865 q 254 803 307 803 q 172 834 203 803 q 140 913 140 865 m 268 474 l 517 474 q 476 549 511 525 q 397 574 442 574 q 316 547 349 574 q 268 474 283 519 m 433 913 q 465 990 433 960 q 549 1021 497 1021 q 631 991 600 1021 q 663 913 663 961 q 631 834 663 865 q 549 803 600 803 q 465 834 497 803 q 433 913 433 865 z "},"ė":{"ha":769,"x_min":14,"x_max":771,"o":"m 439 -11 q 206 38 301 -11 q 63 175 111 86 q 14 382 14 264 q 61 590 14 503 q 195 725 108 678 q 399 772 282 772 q 613 717 525 772 q 735 558 700 661 q 743 307 771 454 l 271 307 q 344 229 294 251 q 457 207 394 207 q 683 269 581 207 l 683 36 q 563 0 628 11 q 439 -11 499 -11 m 258 935 q 297 1028 258 993 q 401 1064 335 1064 q 506 1028 468 1064 q 544 935 544 993 q 506 842 544 876 q 401 807 468 807 q 297 842 336 807 q 258 935 258 876 m 268 474 l 517 474 q 476 549 511 525 q 397 574 442 574 q 316 547 349 574 q 268 474 283 519 z "},"è":{"ha":769,"x_min":14,"x_max":771,"o":"m 439 -11 q 206 38 301 -11 q 63 175 111 86 q 14 382 14 264 q 61 590 14 503 q 195 725 108 678 q 399 772 282 772 q 613 717 525 772 q 735 558 700 661 q 743 307 771 454 l 271 307 q 344 229 294 251 q 457 207 394 207 q 683 269 581 207 l 683 36 q 563 0 628 11 q 439 -11 499 -11 m 161 1051 l 421 1051 l 515 815 l 304 815 l 161 1051 m 268 474 l 517 474 q 476 549 511 525 q 397 574 442 574 q 316 547 349 574 q 268 474 283 519 z "},"ē":{"ha":769,"x_min":14,"x_max":771,"o":"m 439 -11 q 206 38 301 -11 q 63 175 111 86 q 14 382 14 264 q 61 590 14 503 q 195 725 108 678 q 399 772 282 772 q 613 717 525 772 q 735 558 700 661 q 743 307 771 454 l 271 307 q 344 229 294 251 q 457 207 394 207 q 683 269 581 207 l 683 36 q 563 0 628 11 q 439 -11 499 -11 m 165 829 l 165 1004 l 638 1004 l 638 829 l 165 829 m 268 474 l 517 474 q 476 549 511 525 q 397 574 442 574 q 316 547 349 574 q 268 474 283 519 z "},"ę":{"ha":769,"x_min":14,"x_max":771,"o":"m 463 -243 q 328 -203 371 -243 q 285 -104 285 -162 q 326 -1 285 -46 q 94 128 175 26 q 14 382 14 231 q 61 590 14 503 q 195 725 108 678 q 399 772 282 772 q 613 717 525 772 q 735 558 700 661 q 743 307 771 454 l 271 307 q 344 229 294 251 q 457 207 394 207 q 683 269 581 207 l 683 36 q 601 8 644 18 q 515 -7 558 -1 q 474 -61 474 -25 q 513 -96 474 -96 q 532 -93 522 -96 q 553 -86 542 -90 l 553 -232 q 506 -240 529 -237 q 463 -243 482 -243 m 268 474 l 517 474 q 476 549 511 525 q 397 574 442 574 q 316 547 349 574 q 268 474 283 519 z "},"f":{"ha":463,"x_min":11,"x_max":453,"o":"m 81 772 q 145 959 81 896 q 324 1022 210 1022 q 386 1017 354 1022 q 449 1004 418 1013 l 449 775 q 385 792 414 792 q 349 779 364 792 q 335 738 335 767 l 335 711 l 453 711 l 453 500 l 335 500 l 335 0 l 81 0 l 81 500 l 11 500 l 11 711 l 81 711 l 81 772 z "},"g":{"ha":786,"x_min":14,"x_max":751,"o":"m 343 -194 q 104 -158 221 -194 l 104 75 q 203 33 149 51 q 322 15 257 15 q 454 47 410 15 q 499 129 499 78 l 499 136 l 496 136 q 417 103 460 114 q 329 92 375 92 q 167 129 239 92 q 55 240 96 167 q 14 421 14 314 q 56 608 14 531 q 169 727 97 686 q 332 768 240 768 q 437 751 389 768 q 518 704 485 735 l 521 704 l 521 763 l 751 763 l 751 151 q 694 -49 751 28 q 545 -160 638 -125 q 343 -194 453 -194 m 276 421 q 310 327 276 361 q 396 293 344 293 q 479 326 444 293 q 514 419 514 360 q 479 515 514 482 q 394 549 444 549 q 310 515 344 549 q 276 421 276 481 z "},"ģ":{"ha":786,"x_min":14,"x_max":751,"o":"m 343 -194 q 104 -158 221 -194 l 104 75 q 203 33 149 51 q 322 15 257 15 q 454 47 410 15 q 499 129 499 78 l 499 136 l 496 136 q 417 103 460 114 q 329 92 375 92 q 167 129 239 92 q 55 240 96 167 q 14 421 14 314 q 56 608 14 531 q 169 727 97 686 q 332 768 240 768 q 437 751 389 768 q 518 704 485 735 l 521 704 l 521 763 l 751 763 l 751 151 q 694 -49 751 28 q 545 -160 638 -125 q 343 -194 453 -194 m 276 421 q 310 327 276 361 q 396 293 344 293 q 479 326 444 293 q 514 419 514 360 q 479 515 514 482 q 394 549 444 549 q 310 515 344 549 q 276 421 276 481 m 286 815 l 349 1051 l 539 1051 l 511 815 l 286 815 z "},"h":{"ha":704,"x_min":36,"x_max":671,"o":"m 36 0 l 36 1004 l 290 1004 l 290 714 l 293 714 q 447 772 351 772 q 610 708 550 772 q 671 529 671 643 l 671 0 l 417 0 l 417 458 q 354 535 417 535 q 290 458 290 535 l 290 0 l 36 0 z "},"i":{"ha":326,"x_min":21,"x_max":307,"o":"m 36 0 l 36 763 l 290 763 l 290 0 l 36 0 m 21 935 q 59 1028 21 993 q 164 1064 97 1064 q 269 1028 231 1064 q 307 935 307 993 q 269 842 307 876 q 164 807 231 807 q 60 842 99 807 q 21 935 21 876 z "},"ı":{"ha":326,"x_min":36,"x_max":290,"o":"m 36 0 l 36 763 l 290 763 l 290 0 l 36 0 z "},"í":{"ha":326,"x_min":36,"x_max":403,"o":"m 36 0 l 36 763 l 290 763 l 290 0 l 36 0 m 53 815 l 147 1051 l 403 1051 l 260 815 l 53 815 z "},"î":{"ha":326,"x_min":-118,"x_max":443,"o":"m 36 0 l 36 763 l 290 763 l 290 0 l 36 0 m -118 815 l 38 1051 l 290 1051 l 443 815 l 228 815 l 165 914 l 163 914 l 99 815 l -118 815 z "},"ï":{"ha":326,"x_min":-97,"x_max":425,"o":"m 36 0 l 36 763 l 290 763 l 290 0 l 36 0 m -97 913 q -66 990 -97 960 q 17 1021 -35 1021 q 101 991 69 1021 q 132 913 132 961 q 101 834 132 865 q 17 803 69 803 q -66 834 -35 803 q -97 913 -97 865 m 196 913 q 228 990 196 960 q 311 1021 260 1021 q 394 991 363 1021 q 425 913 425 961 q 394 834 425 865 q 311 803 363 803 q 228 834 260 803 q 196 913 196 865 z "},"ì":{"ha":326,"x_min":-76,"x_max":290,"o":"m 36 0 l 36 763 l 290 763 l 290 0 l 36 0 m -76 1051 l 183 1051 l 278 815 l 67 815 l -76 1051 z "},"ĳ":{"ha":697,"x_min":21,"x_max":676,"o":"m 36 0 l 36 763 l 290 763 l 290 0 l 36 0 m 21 935 q 59 1028 21 993 q 164 1064 97 1064 q 269 1028 231 1064 q 307 935 307 993 q 269 842 307 876 q 164 807 231 807 q 60 842 99 807 q 21 935 21 876 m 317 -178 l 317 47 q 343 38 331 42 q 367 33 356 33 q 396 44 385 33 q 407 81 407 56 l 407 763 l 661 763 l 661 71 q 597 -129 661 -64 q 426 -194 533 -194 q 368 -190 396 -194 q 317 -178 340 -185 m 390 935 q 428 1028 390 993 q 533 1064 467 1064 q 638 1028 600 1064 q 676 935 676 993 q 638 842 676 876 q 533 807 600 807 q 429 842 468 807 q 390 935 390 876 z "},"ī":{"ha":326,"x_min":-72,"x_max":400,"o":"m 36 0 l 36 763 l 290 763 l 290 0 l 36 0 m -72 829 l -72 1004 l 400 1004 l 400 829 l -72 829 z "},"į":{"ha":326,"x_min":-10,"x_max":307,"o":"m 164 807 q 60 842 99 807 q 21 935 21 876 q 59 1028 21 993 q 164 1064 97 1064 q 269 1028 231 1064 q 307 935 307 993 q 269 842 307 876 q 164 807 231 807 m -10 -104 q 36 4 -10 -42 l 36 763 l 290 763 l 290 0 l 258 0 q 200 -19 221 0 q 179 -61 179 -37 q 218 -96 179 -96 q 238 -93 228 -96 q 258 -86 247 -90 l 258 -232 q 211 -240 235 -237 q 168 -243 188 -243 q 33 -203 76 -243 q -10 -104 -10 -162 z "},"j":{"ha":374,"x_min":-7,"x_max":353,"o":"m 103 -194 q 44 -190 72 -194 q -7 -178 17 -185 l -7 47 q 19 38 7 42 q 43 33 32 33 q 72 44 61 33 q 83 81 83 56 l 83 763 l 338 763 l 338 71 q 274 -129 338 -64 q 103 -194 210 -194 m 67 935 q 105 1028 67 993 q 210 1064 143 1064 q 315 1028 276 1064 q 353 935 353 993 q 315 842 353 876 q 210 807 276 807 q 106 842 144 807 q 67 935 67 876 z "},"ȷ":{"ha":374,"x_min":-7,"x_max":338,"o":"m 103 -194 q 44 -190 72 -194 q -7 -178 17 -185 l -7 47 q 19 38 7 42 q 43 33 32 33 q 72 44 61 33 q 83 81 83 56 l 83 763 l 338 763 l 338 71 q 274 -129 338 -64 q 103 -194 210 -194 z "},"k":{"ha":689,"x_min":36,"x_max":697,"o":"m 36 0 l 36 1004 l 290 1004 l 290 486 l 293 486 l 433 763 l 697 763 l 511 450 q 618 375 579 432 q 657 221 657 318 l 657 0 l 404 0 l 404 197 q 389 255 404 238 q 338 272 374 272 l 290 272 l 290 0 l 36 0 z "},"ķ":{"ha":689,"x_min":36,"x_max":697,"o":"m 36 0 l 36 1004 l 290 1004 l 290 486 l 293 486 l 433 763 l 697 763 l 511 450 q 618 375 579 432 q 657 221 657 318 l 657 0 l 404 0 l 404 197 q 389 255 404 238 q 338 272 374 272 l 290 272 l 290 0 l 36 0 m 208 -243 l 236 -46 l 461 -46 l 399 -243 l 208 -243 z "},"l":{"ha":325,"x_min":36,"x_max":290,"o":"m 36 0 l 36 1004 l 290 1004 l 290 0 l 36 0 z "},"ĺ":{"ha":325,"x_min":36,"x_max":403,"o":"m 36 0 l 36 1004 l 290 1004 l 290 0 l 36 0 m 53 1057 l 147 1293 l 403 1293 l 260 1057 l 53 1057 z "},"ľ":{"ha":325,"x_min":36,"x_max":547,"o":"m 36 0 l 36 1004 l 290 1004 l 290 0 l 36 0 m 340 814 l 340 1096 l 547 1096 l 493 814 l 340 814 z "},"ļ":{"ha":325,"x_min":24,"x_max":290,"o":"m 36 0 l 36 1004 l 290 1004 l 290 0 l 36 0 m 24 -243 l 51 -46 l 276 -46 l 214 -243 l 24 -243 z "},"ł":{"ha":453,"x_min":8,"x_max":443,"o":"m 99 0 l 99 396 l 8 357 l 8 583 l 99 622 l 99 1004 l 353 1004 l 353 735 l 443 774 l 443 547 l 353 508 l 353 0 l 99 0 z "},"m":{"ha":1078,"x_min":36,"x_max":1043,"o":"m 36 0 l 36 763 l 251 763 l 251 700 l 254 700 q 432 774 324 774 q 614 694 551 774 l 617 694 q 806 774 688 774 q 979 708 915 774 q 1043 529 1043 643 l 1043 0 l 790 0 l 790 458 q 729 535 790 535 q 667 458 667 535 l 667 0 l 414 0 l 414 458 q 351 535 414 535 q 290 458 290 535 l 290 0 l 36 0 z "},"n":{"ha":704,"x_min":36,"x_max":671,"o":"m 36 0 l 36 763 l 251 763 l 251 701 l 254 701 q 435 774 322 774 q 606 708 542 774 q 671 529 671 643 l 671 0 l 417 0 l 417 458 q 354 535 417 535 q 290 458 290 535 l 290 0 l 36 0 z "},"ń":{"ha":704,"x_min":36,"x_max":671,"o":"m 36 0 l 36 763 l 251 763 l 251 701 l 254 701 q 435 774 322 774 q 606 708 542 774 q 671 529 671 643 l 671 0 l 417 0 l 417 458 q 354 535 417 535 q 290 458 290 535 l 290 0 l 36 0 m 239 815 l 333 1051 l 589 1051 l 446 815 l 239 815 z "},"ň":{"ha":704,"x_min":36,"x_max":671,"o":"m 36 0 l 36 763 l 251 763 l 251 701 l 254 701 q 435 774 322 774 q 606 708 542 774 q 671 529 671 643 l 671 0 l 417 0 l 417 458 q 354 535 417 535 q 290 458 290 535 l 290 0 l 36 0 m 68 1051 l 283 1051 l 346 951 l 349 951 l 413 1051 l 629 1051 l 474 815 l 221 815 l 68 1051 z "},"ņ":{"ha":704,"x_min":36,"x_max":671,"o":"m 36 0 l 36 763 l 251 763 l 251 701 l 254 701 q 435 774 322 774 q 606 708 542 774 q 671 529 671 643 l 671 0 l 417 0 l 417 458 q 354 535 417 535 q 290 458 290 535 l 290 0 l 36 0 m 214 -243 l 242 -46 l 467 -46 l 404 -243 l 214 -243 z "},"ñ":{"ha":704,"x_min":36,"x_max":671,"o":"m 36 0 l 36 763 l 251 763 l 251 701 l 254 701 q 435 774 322 774 q 606 708 542 774 q 671 529 671 643 l 671 0 l 417 0 l 417 458 q 354 535 417 535 q 290 458 290 535 l 290 0 l 36 0 m 53 815 q 106 988 53 932 q 240 1044 160 1044 q 324 1031 288 1044 q 390 1003 361 1017 q 442 989 418 989 q 477 1003 464 989 q 493 1042 490 1018 l 647 1042 q 594 869 647 926 q 460 813 542 813 q 376 827 413 813 q 310 856 339 842 q 258 869 282 869 q 207 815 214 869 l 53 815 z "},"ŋ":{"ha":714,"x_min":36,"x_max":681,"o":"m 457 -194 q 356 -178 408 -194 l 356 47 q 376 40 367 43 q 394 38 385 38 q 417 46 408 38 q 426 76 426 54 l 426 456 q 409 514 426 493 q 360 535 392 535 q 309 513 328 535 q 290 456 290 492 l 290 0 l 36 0 l 36 763 l 251 763 l 251 701 l 254 701 q 438 774 322 774 q 615 706 550 774 q 681 521 681 638 l 681 71 q 618 -129 681 -64 q 457 -194 556 -194 z "},"o":{"ha":817,"x_min":14,"x_max":804,"o":"m 410 -12 q 201 36 290 -12 q 63 174 111 85 q 14 381 14 263 q 63 588 14 500 q 201 725 113 676 q 410 774 290 774 q 618 725 529 774 q 756 588 707 676 q 804 381 804 500 q 756 174 804 263 q 618 36 707 85 q 410 -12 529 -12 m 276 381 q 314 278 276 318 q 410 239 351 239 q 504 278 468 239 q 540 381 540 318 q 504 484 540 444 q 410 524 468 524 q 313 484 350 524 q 276 381 276 444 z "},"ó":{"ha":817,"x_min":14,"x_max":804,"o":"m 410 -12 q 201 36 290 -12 q 63 174 111 85 q 14 381 14 263 q 63 588 14 500 q 201 725 113 676 q 410 774 290 774 q 618 725 529 774 q 756 588 707 676 q 804 381 804 500 q 756 174 804 263 q 618 36 707 85 q 410 -12 529 -12 m 276 381 q 314 278 276 318 q 410 239 351 239 q 504 278 468 239 q 540 381 540 318 q 504 484 540 444 q 410 524 468 524 q 313 484 350 524 q 276 381 276 444 m 299 815 l 393 1051 l 649 1051 l 506 815 l 299 815 z "},"ô":{"ha":817,"x_min":14,"x_max":804,"o":"m 410 -12 q 201 36 290 -12 q 63 174 111 85 q 14 381 14 263 q 63 588 14 500 q 201 725 113 676 q 410 774 290 774 q 618 725 529 774 q 756 588 707 676 q 804 381 804 500 q 756 174 804 263 q 618 36 707 85 q 410 -12 529 -12 m 128 815 l 283 1051 l 536 1051 l 689 815 l 474 815 l 411 914 l 408 914 l 344 815 l 128 815 m 276 381 q 314 278 276 318 q 410 239 351 239 q 504 278 468 239 q 540 381 540 318 q 504 484 540 444 q 410 524 468 524 q 313 484 350 524 q 276 381 276 444 z "},"ö":{"ha":817,"x_min":14,"x_max":804,"o":"m 410 -12 q 201 36 290 -12 q 63 174 111 85 q 14 381 14 263 q 63 588 14 500 q 201 725 113 676 q 410 774 290 774 q 618 725 529 774 q 756 588 707 676 q 804 381 804 500 q 756 174 804 263 q 618 36 707 85 q 410 -12 529 -12 m 149 913 q 180 990 149 960 q 263 1021 211 1021 q 347 991 315 1021 q 378 913 378 961 q 347 834 378 865 q 263 803 315 803 q 180 834 211 803 q 149 913 149 865 m 276 381 q 314 278 276 318 q 410 239 351 239 q 504 278 468 239 q 540 381 540 318 q 504 484 540 444 q 410 524 468 524 q 313 484 350 524 q 276 381 276 444 m 442 913 q 474 990 442 960 q 557 1021 506 1021 q 640 991 608 1021 q 671 913 671 961 q 640 834 671 865 q 557 803 608 803 q 474 834 506 803 q 442 913 442 865 z "},"ò":{"ha":817,"x_min":14,"x_max":804,"o":"m 410 -12 q 201 36 290 -12 q 63 174 111 85 q 14 381 14 263 q 63 588 14 500 q 201 725 113 676 q 410 774 290 774 q 618 725 529 774 q 756 588 707 676 q 804 381 804 500 q 756 174 804 263 q 618 36 707 85 q 410 -12 529 -12 m 169 1051 l 429 1051 l 524 815 l 313 815 l 169 1051 m 276 381 q 314 278 276 318 q 410 239 351 239 q 504 278 468 239 q 540 381 540 318 q 504 484 540 444 q 410 524 468 524 q 313 484 350 524 q 276 381 276 444 z "},"ő":{"ha":817,"x_min":14,"x_max":804,"o":"m 410 -12 q 201 36 290 -12 q 63 174 111 85 q 14 381 14 263 q 63 588 14 500 q 201 725 113 676 q 410 774 290 774 q 618 725 529 774 q 756 588 707 676 q 804 381 804 500 q 756 174 804 263 q 618 36 707 85 q 410 -12 529 -12 m 174 815 l 256 1051 l 471 1051 l 360 815 l 174 815 m 276 381 q 314 278 276 318 q 410 239 351 239 q 504 278 468 239 q 540 381 540 318 q 504 484 540 444 q 410 524 468 524 q 313 484 350 524 q 276 381 276 444 m 442 815 l 542 1051 l 764 1051 l 635 815 l 442 815 z "},"ō":{"ha":817,"x_min":14,"x_max":804,"o":"m 410 -12 q 201 36 290 -12 q 63 174 111 85 q 14 381 14 263 q 63 588 14 500 q 201 725 113 676 q 410 774 290 774 q 618 725 529 774 q 756 588 707 676 q 804 381 804 500 q 756 174 804 263 q 618 36 707 85 q 410 -12 529 -12 m 174 829 l 174 1004 l 646 1004 l 646 829 l 174 829 m 276 381 q 314 278 276 318 q 410 239 351 239 q 504 278 468 239 q 540 381 540 318 q 504 484 540 444 q 410 524 468 524 q 313 484 350 524 q 276 381 276 444 z "},"ø":{"ha":819,"x_min":14,"x_max":804,"o":"m 138 -58 l 25 36 l 97 122 q 14 381 14 225 q 63 588 14 500 q 201 725 113 676 q 410 774 290 774 q 607 731 521 774 l 682 819 l 794 725 l 722 638 q 804 381 804 536 q 756 174 804 263 q 618 36 707 85 q 410 -12 529 -12 q 213 31 299 -12 l 138 -58 m 249 381 q 260 315 249 346 l 453 546 q 410 551 435 551 q 294 504 339 551 q 249 381 249 457 m 368 217 q 410 211 385 211 q 526 258 481 211 q 571 381 571 306 q 560 446 571 415 l 368 217 z "},"õ":{"ha":817,"x_min":14,"x_max":804,"o":"m 410 -12 q 201 36 290 -12 q 63 174 111 85 q 14 381 14 263 q 63 588 14 500 q 201 725 113 676 q 410 774 290 774 q 618 725 529 774 q 756 588 707 676 q 804 381 804 500 q 756 174 804 263 q 618 36 707 85 q 410 -12 529 -12 m 113 815 q 166 988 113 932 q 300 1044 219 1044 q 384 1031 347 1044 q 449 1003 421 1017 q 501 989 478 989 q 537 1003 524 989 q 553 1042 550 1018 l 707 1042 q 654 869 707 926 q 519 813 601 813 q 435 827 472 813 q 370 856 399 842 q 318 869 342 869 q 267 815 274 869 l 113 815 m 276 381 q 314 278 276 318 q 410 239 351 239 q 504 278 468 239 q 540 381 540 318 q 504 484 540 444 q 410 524 468 524 q 313 484 350 524 q 276 381 276 444 z "},"œ":{"ha":1306,"x_min":14,"x_max":1307,"o":"m 408 -12 q 200 36 289 -12 q 63 174 111 85 q 14 381 14 263 q 63 588 14 500 q 201 725 113 676 q 408 774 290 774 q 675 676 575 774 l 678 676 q 936 772 774 772 q 1148 717 1061 772 q 1271 556 1235 661 q 1279 306 1307 451 l 804 306 q 877 225 826 249 q 992 201 928 201 q 1111 219 1053 201 q 1218 267 1169 236 l 1218 35 q 1099 -1 1163 10 q 976 -11 1036 -11 q 681 88 782 -11 l 678 88 q 408 -12 575 -12 m 276 381 q 314 278 276 318 q 410 239 351 239 q 504 278 468 239 q 540 381 540 318 q 504 484 540 444 q 410 524 468 524 q 313 484 350 524 q 276 381 276 444 m 801 471 l 1054 471 q 1013 549 1049 524 q 933 574 978 574 q 851 547 885 574 q 801 471 817 519 z "},"p":{"ha":807,"x_min":36,"x_max":792,"o":"m 36 -187 l 36 763 l 267 763 l 267 703 l 269 703 q 357 752 307 736 q 463 768 407 768 q 635 720 561 768 q 750 585 708 672 q 792 381 792 499 q 748 174 792 261 q 630 39 704 86 q 463 -8 556 -8 q 293 42 367 -8 l 290 42 l 290 -187 l 36 -187 m 275 382 q 313 274 275 311 q 403 236 351 236 q 492 274 456 236 q 529 383 529 313 q 492 491 529 453 q 403 529 456 529 q 313 492 351 529 q 275 382 275 454 z "},"þ":{"ha":807,"x_min":36,"x_max":792,"o":"m 36 -187 l 36 1004 l 290 1004 l 290 721 l 293 721 q 372 758 329 746 q 463 769 415 769 q 630 722 556 769 q 748 588 704 675 q 792 381 792 500 q 748 174 792 261 q 630 39 704 86 q 463 -8 556 -8 q 293 42 367 -8 l 290 42 l 290 -187 l 36 -187 m 275 383 q 313 274 275 311 q 403 236 351 236 q 492 274 456 236 q 529 383 529 313 q 492 492 529 453 q 403 531 456 531 q 313 492 351 531 q 275 383 275 454 z "},"q":{"ha":807,"x_min":15,"x_max":772,"o":"m 518 -187 l 518 42 l 515 42 q 344 -8 440 -8 q 177 39 251 -8 q 59 174 103 86 q 15 381 15 261 q 57 585 15 499 q 173 720 99 672 q 346 768 247 768 q 450 752 400 768 q 538 703 500 736 l 540 703 l 540 763 l 772 763 l 772 -187 l 518 -187 m 278 383 q 315 274 278 313 q 404 236 353 236 q 494 274 457 236 q 532 382 532 311 q 494 492 532 454 q 404 529 457 529 q 315 491 353 529 q 278 383 278 453 z "},"r":{"ha":468,"x_min":36,"x_max":458,"o":"m 36 0 l 36 763 l 251 763 l 251 703 l 254 703 q 319 754 282 739 q 400 769 356 769 q 430 767 415 769 q 458 763 444 765 l 457 513 q 376 531 414 531 q 315 508 339 531 q 290 435 290 486 l 290 0 l 36 0 z "},"ŕ":{"ha":468,"x_min":36,"x_max":496,"o":"m 36 0 l 36 763 l 251 763 l 251 703 l 254 703 q 319 754 282 739 q 400 769 356 769 q 430 767 415 769 q 458 763 444 765 l 457 513 q 376 531 414 531 q 315 508 339 531 q 290 435 290 486 l 290 0 l 36 0 m 146 815 l 240 1051 l 496 1051 l 353 815 l 146 815 z "},"ř":{"ha":468,"x_min":-25,"x_max":536,"o":"m 36 0 l 36 763 l 251 763 l 251 703 l 254 703 q 319 754 282 739 q 400 769 356 769 q 430 767 415 769 q 458 763 444 765 l 457 513 q 376 531 414 531 q 315 508 339 531 q 290 435 290 486 l 290 0 l 36 0 m -25 1051 l 190 1051 l 253 951 l 256 951 l 319 1051 l 536 1051 l 381 815 l 128 815 l -25 1051 z "},"ŗ":{"ha":468,"x_min":24,"x_max":458,"o":"m 36 0 l 36 763 l 251 763 l 251 703 l 254 703 q 319 754 282 739 q 400 769 356 769 q 430 767 415 769 q 458 763 444 765 l 457 513 q 376 531 414 531 q 315 508 339 531 q 290 435 290 486 l 290 0 l 36 0 m 24 -243 l 51 -46 l 276 -46 l 214 -243 l 24 -243 z "},"s":{"ha":469,"x_min":19,"x_max":463,"o":"m 179 -12 q 100 -7 140 -12 q 22 10 60 -1 l 22 272 q 90 230 60 244 q 147 215 121 215 q 190 247 190 215 q 150 306 190 269 l 107 349 q 40 439 60 392 q 19 543 19 486 q 89 714 19 654 q 281 774 158 774 q 414 757 343 774 l 414 538 q 313 569 350 569 q 274 542 274 569 q 301 499 274 522 l 358 449 q 437 352 411 401 q 463 238 463 303 q 387 53 463 119 q 179 -12 311 -12 z "},"ś":{"ha":469,"x_min":19,"x_max":468,"o":"m 179 -12 q 100 -7 140 -12 q 22 10 60 -1 l 22 272 q 90 230 60 244 q 147 215 121 215 q 190 247 190 215 q 150 306 190 269 l 107 349 q 40 439 60 392 q 19 543 19 486 q 89 714 19 654 q 281 774 158 774 q 414 757 343 774 l 414 538 q 313 569 350 569 q 274 542 274 569 q 301 499 274 522 l 358 449 q 437 352 411 401 q 463 238 463 303 q 387 53 463 119 q 179 -12 311 -12 m 118 815 l 213 1051 l 468 1051 l 325 815 l 118 815 z "},"š":{"ha":469,"x_min":-53,"x_max":508,"o":"m 179 -12 q 100 -7 140 -12 q 22 10 60 -1 l 22 272 q 90 230 60 244 q 147 215 121 215 q 190 247 190 215 q 150 306 190 269 l 107 349 q 40 439 60 392 q 19 543 19 486 q 89 714 19 654 q 281 774 158 774 q 414 757 343 774 l 414 538 q 313 569 350 569 q 274 542 274 569 q 301 499 274 522 l 358 449 q 437 352 411 401 q 463 238 463 303 q 387 53 463 119 q 179 -12 311 -12 m -53 1051 l 163 1051 l 225 951 l 228 951 l 292 1051 l 508 1051 l 353 815 l 100 815 l -53 1051 z "},"ş":{"ha":469,"x_min":19,"x_max":463,"o":"m 264 -215 l 39 -157 l 111 -8 q 66 -1 89 -6 q 22 10 43 4 l 22 272 q 90 230 60 244 q 147 215 121 215 q 190 247 190 215 q 150 306 190 269 l 107 349 q 40 439 60 392 q 19 543 19 486 q 89 714 19 654 q 281 774 158 774 q 414 757 343 774 l 414 538 q 313 569 350 569 q 274 542 274 569 q 301 499 274 522 l 358 449 q 437 352 411 401 q 463 238 463 303 q 425 98 463 156 q 318 13 388 40 l 264 -215 z "},"ß":{"ha":788,"x_min":33,"x_max":776,"o":"m 446 -4 q 398 -1 424 -4 q 342 7 372 1 l 342 258 q 418 240 382 240 q 486 264 461 240 q 511 326 511 288 q 485 390 511 369 q 415 411 460 411 l 358 411 l 358 625 l 364 625 q 420 649 400 625 q 440 707 440 672 q 420 765 440 743 q 364 786 400 786 q 308 763 329 786 q 288 700 288 740 l 288 0 l 33 0 l 33 707 q 119 938 33 860 q 367 1017 206 1017 q 604 949 517 1017 q 692 760 692 882 q 667 653 692 700 q 601 574 643 606 l 601 571 q 729 479 682 546 q 776 311 776 413 q 735 143 776 214 q 620 34 694 72 q 446 -4 546 -4 z "},"t":{"ha":465,"x_min":7,"x_max":446,"o":"m 303 -11 q 130 47 189 -11 q 71 231 71 104 l 71 543 l 7 543 l 7 699 q 101 760 68 719 q 142 875 133 801 l 146 913 l 325 913 l 325 763 l 446 763 l 446 543 l 325 543 l 325 293 q 340 249 325 263 q 376 236 354 236 q 439 251 401 236 l 439 10 q 376 -6 410 0 q 303 -11 342 -11 z "},"ŧ":{"ha":472,"x_min":11,"x_max":450,"o":"m 11 343 l 11 508 l 88 508 l 88 572 l 11 572 l 11 699 q 103 759 72 719 q 144 871 135 799 l 150 913 l 329 913 l 329 763 l 450 763 l 450 572 l 329 572 l 329 508 l 450 508 l 450 343 l 329 343 l 329 293 q 344 249 329 263 q 381 236 358 236 q 443 251 406 236 l 443 10 q 380 -6 414 0 q 308 -11 346 -11 q 142 47 197 -11 q 88 231 88 104 l 88 343 l 11 343 z "},"ť":{"ha":465,"x_min":7,"x_max":582,"o":"m 303 -11 q 130 47 189 -11 q 71 231 71 104 l 71 543 l 7 543 l 7 699 q 101 760 68 719 q 142 875 133 801 l 146 913 l 325 913 l 325 763 l 446 763 l 446 543 l 325 543 l 325 293 q 340 249 325 263 q 376 236 354 236 q 439 251 401 236 l 439 10 q 376 -6 410 0 q 303 -11 342 -11 m 375 814 l 375 1096 l 582 1096 l 528 814 l 375 814 z "},"ţ":{"ha":465,"x_min":7,"x_max":446,"o":"m 7 699 q 101 760 68 719 q 142 875 133 801 l 146 913 l 325 913 l 325 763 l 446 763 l 446 543 l 325 543 l 325 293 q 340 249 325 263 q 376 236 354 236 q 439 251 401 236 l 439 10 q 339 -10 393 -6 l 289 -215 l 64 -157 l 153 28 q 71 231 71 85 l 71 543 l 7 543 l 7 699 z "},"u":{"ha":699,"x_min":33,"x_max":664,"o":"m 265 -11 q 94 55 156 -11 q 33 235 33 121 l 33 763 l 288 763 l 288 304 q 344 228 288 228 q 410 304 410 228 l 410 763 l 664 763 l 664 0 l 449 0 l 449 61 l 446 61 q 366 6 413 24 q 265 -11 319 -11 z "},"ú":{"ha":699,"x_min":33,"x_max":664,"o":"m 265 -11 q 94 55 156 -11 q 33 235 33 121 l 33 763 l 288 763 l 288 304 q 344 228 288 228 q 410 304 410 228 l 410 763 l 664 763 l 664 0 l 449 0 l 449 61 l 446 61 q 366 6 413 24 q 265 -11 319 -11 m 238 815 l 332 1051 l 588 1051 l 444 815 l 238 815 z "},"û":{"ha":699,"x_min":33,"x_max":664,"o":"m 265 -11 q 94 55 156 -11 q 33 235 33 121 l 33 763 l 288 763 l 288 304 q 344 228 288 228 q 410 304 410 228 l 410 763 l 664 763 l 664 0 l 449 0 l 449 61 l 446 61 q 366 6 413 24 q 265 -11 319 -11 m 67 815 l 222 1051 l 475 1051 l 628 815 l 413 815 l 350 914 l 347 914 l 283 815 l 67 815 z "},"ü":{"ha":699,"x_min":33,"x_max":664,"o":"m 265 -11 q 94 55 156 -11 q 33 235 33 121 l 33 763 l 288 763 l 288 304 q 344 228 288 228 q 410 304 410 228 l 410 763 l 664 763 l 664 0 l 449 0 l 449 61 l 446 61 q 366 6 413 24 q 265 -11 319 -11 m 88 913 q 119 990 88 960 q 201 1021 150 1021 q 285 991 254 1021 q 317 913 317 961 q 285 834 317 865 q 201 803 254 803 q 119 834 150 803 q 88 913 88 865 m 381 913 q 413 990 381 960 q 496 1021 444 1021 q 578 991 547 1021 q 610 913 610 961 q 578 834 610 865 q 496 803 547 803 q 413 834 444 803 q 381 913 381 865 z "},"ù":{"ha":699,"x_min":33,"x_max":664,"o":"m 265 -11 q 94 55 156 -11 q 33 235 33 121 l 33 763 l 288 763 l 288 304 q 344 228 288 228 q 410 304 410 228 l 410 763 l 664 763 l 664 0 l 449 0 l 449 61 l 446 61 q 366 6 413 24 q 265 -11 319 -11 m 108 1051 l 368 1051 l 463 815 l 251 815 l 108 1051 z "},"ű":{"ha":699,"x_min":33,"x_max":703,"o":"m 265 -11 q 94 55 156 -11 q 33 235 33 121 l 33 763 l 288 763 l 288 304 q 344 228 288 228 q 410 304 410 228 l 410 763 l 664 763 l 664 0 l 449 0 l 449 61 l 446 61 q 366 6 413 24 q 265 -11 319 -11 m 113 815 l 194 1051 l 410 1051 l 299 815 l 113 815 m 381 815 l 481 1051 l 703 1051 l 574 815 l 381 815 z "},"ū":{"ha":699,"x_min":33,"x_max":664,"o":"m 265 -11 q 94 55 156 -11 q 33 235 33 121 l 33 763 l 288 763 l 288 304 q 344 228 288 228 q 410 304 410 228 l 410 763 l 664 763 l 664 0 l 449 0 l 449 61 l 446 61 q 366 6 413 24 q 265 -11 319 -11 m 113 829 l 113 1004 l 585 1004 l 585 829 l 113 829 z "},"ų":{"ha":699,"x_min":33,"x_max":664,"o":"m 265 -11 q 94 55 156 -11 q 33 235 33 121 l 33 763 l 288 763 l 288 304 q 344 228 288 228 q 410 304 410 228 l 410 763 l 664 763 l 664 0 q 606 -19 626 0 q 585 -61 585 -37 q 624 -96 585 -96 q 643 -93 633 -96 q 664 -86 653 -90 l 664 -232 q 617 -240 640 -237 q 574 -243 593 -243 q 439 -203 482 -243 q 396 -104 396 -162 q 449 10 396 -36 l 449 61 l 446 61 q 366 6 413 24 q 265 -11 319 -11 z "},"ů":{"ha":699,"x_min":33,"x_max":664,"o":"m 265 -11 q 94 55 156 -11 q 33 235 33 121 l 33 763 l 288 763 l 288 304 q 344 228 288 228 q 410 304 410 228 l 410 763 l 664 763 l 664 0 l 449 0 l 449 61 l 446 61 q 366 6 413 24 q 265 -11 319 -11 m 176 965 q 225 1082 176 1036 q 349 1128 274 1128 q 472 1082 424 1128 q 521 965 521 1036 q 472 849 521 894 q 349 804 424 804 q 225 849 274 804 q 176 965 176 894 m 294 965 q 310 926 294 942 q 349 911 325 911 q 388 926 372 911 q 403 965 403 942 q 388 1004 403 989 q 349 1019 372 1019 q 310 1004 325 1019 q 294 965 294 989 z "},"v":{"ha":681,"x_min":-12,"x_max":690,"o":"m 168 0 l -12 763 l 251 763 l 339 228 l 342 228 l 431 763 l 690 763 l 508 0 l 168 0 z "},"w":{"ha":1060,"x_min":-12,"x_max":1072,"o":"m 128 0 l -12 763 l 250 763 l 307 238 l 310 238 l 414 763 l 650 763 l 754 238 l 757 238 l 814 763 l 1072 763 l 932 0 l 615 0 l 531 413 l 528 413 l 443 0 l 128 0 z "},"ẃ":{"ha":1060,"x_min":-12,"x_max":1072,"o":"m 128 0 l -12 763 l 250 763 l 307 238 l 310 238 l 414 763 l 650 763 l 754 238 l 757 238 l 814 763 l 1072 763 l 932 0 l 615 0 l 531 413 l 528 413 l 443 0 l 128 0 m 421 815 l 515 1051 l 771 1051 l 628 815 l 421 815 z "},"ŵ":{"ha":1060,"x_min":-12,"x_max":1072,"o":"m 128 0 l -12 763 l 250 763 l 307 238 l 310 238 l 414 763 l 650 763 l 754 238 l 757 238 l 814 763 l 1072 763 l 932 0 l 615 0 l 531 413 l 528 413 l 443 0 l 128 0 m 250 815 l 406 1051 l 658 1051 l 811 815 l 596 815 l 533 914 l 531 914 l 467 815 l 250 815 z "},"ẅ":{"ha":1060,"x_min":-12,"x_max":1072,"o":"m 128 0 l -12 763 l 250 763 l 307 238 l 310 238 l 414 763 l 650 763 l 754 238 l 757 238 l 814 763 l 1072 763 l 932 0 l 615 0 l 531 413 l 528 413 l 443 0 l 128 0 m 271 913 q 302 990 271 960 q 385 1021 333 1021 q 469 991 438 1021 q 500 913 500 961 q 469 834 500 865 q 385 803 438 803 q 302 834 333 803 q 271 913 271 865 m 564 913 q 596 990 564 960 q 679 1021 628 1021 q 762 991 731 1021 q 793 913 793 961 q 762 834 793 865 q 679 803 731 803 q 596 834 628 803 q 564 913 564 865 z "},"ẁ":{"ha":1060,"x_min":-12,"x_max":1072,"o":"m 128 0 l -12 763 l 250 763 l 307 238 l 310 238 l 414 763 l 650 763 l 754 238 l 757 238 l 814 763 l 1072 763 l 932 0 l 615 0 l 531 413 l 528 413 l 443 0 l 128 0 m 292 1051 l 551 1051 l 646 815 l 435 815 l 292 1051 z "},"x":{"ha":668,"x_min":-12,"x_max":690,"o":"m -12 0 l 161 400 l -10 763 l 274 763 l 351 551 l 354 551 l 431 763 l 690 763 l 517 383 l 689 0 l 406 0 l 328 225 l 325 225 l 250 0 l -12 0 z "},"y":{"ha":679,"x_min":-22,"x_max":703,"o":"m 147 -187 l 206 6 l -22 763 l 249 763 l 340 347 l 343 347 l 444 763 l 703 763 l 406 -187 l 147 -187 z "},"ý":{"ha":679,"x_min":-22,"x_max":703,"o":"m 147 -187 l 206 6 l -22 763 l 249 763 l 340 347 l 343 347 l 444 763 l 703 763 l 406 -187 l 147 -187 m 231 815 l 325 1051 l 581 1051 l 438 815 l 231 815 z "},"ŷ":{"ha":679,"x_min":-22,"x_max":703,"o":"m 147 -187 l 206 6 l -22 763 l 249 763 l 340 347 l 343 347 l 444 763 l 703 763 l 406 -187 l 147 -187 m 60 815 l 215 1051 l 468 1051 l 621 815 l 406 815 l 343 914 l 340 914 l 276 815 l 60 815 z "},"ÿ":{"ha":679,"x_min":-22,"x_max":703,"o":"m 147 -187 l 206 6 l -22 763 l 249 763 l 340 347 l 343 347 l 444 763 l 703 763 l 406 -187 l 147 -187 m 81 913 q 112 990 81 960 q 194 1021 143 1021 q 278 991 247 1021 q 310 913 310 961 q 278 834 310 865 q 194 803 247 803 q 112 834 143 803 q 81 913 81 865 m 374 913 q 406 990 374 960 q 489 1021 438 1021 q 572 991 540 1021 q 603 913 603 961 q 572 834 603 865 q 489 803 540 803 q 406 834 438 803 q 374 913 374 865 z "},"ỳ":{"ha":679,"x_min":-22,"x_max":703,"o":"m 147 -187 l 206 6 l -22 763 l 249 763 l 340 347 l 343 347 l 444 763 l 703 763 l 406 -187 l 147 -187 m 101 1051 l 361 1051 l 456 815 l 244 815 l 101 1051 z "},"z":{"ha":568,"x_min":18,"x_max":549,"o":"m 18 0 l 18 154 l 243 553 l 31 553 l 31 763 l 547 763 l 547 607 l 322 210 l 549 210 l 549 0 l 18 0 z "},"ź":{"ha":568,"x_min":18,"x_max":549,"o":"m 18 0 l 18 154 l 243 553 l 31 553 l 31 763 l 547 763 l 547 607 l 322 210 l 549 210 l 549 0 l 18 0 m 176 815 l 271 1051 l 526 1051 l 383 815 l 176 815 z "},"ž":{"ha":568,"x_min":6,"x_max":567,"o":"m 18 0 l 18 154 l 243 553 l 31 553 l 31 763 l 547 763 l 547 607 l 322 210 l 549 210 l 549 0 l 18 0 m 6 1051 l 221 1051 l 283 951 l 286 951 l 350 1051 l 567 1051 l 411 815 l 158 815 l 6 1051 z "},"ż":{"ha":568,"x_min":18,"x_max":549,"o":"m 18 0 l 18 154 l 243 553 l 31 553 l 31 763 l 547 763 l 547 607 l 322 210 l 549 210 l 549 0 l 18 0 m 144 935 q 183 1028 144 993 q 288 1064 221 1064 q 392 1028 354 1064 q 431 935 431 993 q 392 842 431 876 q 288 807 354 807 q 183 842 222 807 q 144 935 144 876 z "},"ﬁ":{"ha":786,"x_min":11,"x_max":767,"o":"m 81 758 q 143 955 81 889 q 319 1021 206 1021 q 383 1016 353 1021 q 439 1004 413 1011 l 439 778 q 386 792 410 792 q 349 778 364 792 q 335 733 335 765 l 335 711 l 444 711 l 444 500 l 335 500 l 335 0 l 81 0 l 81 500 l 11 500 l 11 711 l 81 711 l 81 758 m 481 935 q 519 1028 481 993 q 624 1064 557 1064 q 728 1028 690 1064 q 767 935 767 993 q 728 842 767 876 q 624 807 690 807 q 519 842 558 807 q 481 935 481 876 m 496 0 l 496 763 l 750 763 l 750 0 l 496 0 z "},"ﬂ":{"ha":785,"x_min":11,"x_max":750,"o":"m 81 758 q 143 955 81 889 q 319 1021 206 1021 q 383 1016 353 1021 q 439 1004 413 1011 l 439 778 q 386 792 410 792 q 349 778 364 792 q 335 733 335 765 l 335 711 l 444 711 l 444 500 l 335 500 l 335 0 l 81 0 l 81 500 l 11 500 l 11 711 l 81 711 l 81 758 m 496 0 l 496 1004 l 750 1004 l 750 0 l 496 0 z "},"ª":{"ha":508,"x_min":19,"x_max":479,"o":"m 182 443 q 63 489 106 443 q 19 613 19 535 q 65 737 19 696 q 181 778 111 778 q 279 747 243 778 l 282 747 l 282 760 q 258 805 282 788 q 189 822 233 822 q 127 815 158 822 q 68 796 96 807 l 68 947 q 160 969 113 961 q 250 978 207 978 q 420 924 361 978 q 479 764 479 871 l 479 449 l 294 449 l 294 479 l 292 479 q 182 443 251 443 m 201 619 q 215 585 201 599 q 249 572 229 572 q 283 585 269 572 q 296 619 296 599 q 283 654 296 642 q 249 667 269 667 q 215 654 229 667 q 201 619 201 642 z "},"º":{"ha":586,"x_min":18,"x_max":568,"o":"m 293 440 q 93 514 168 440 q 18 708 18 588 q 94 904 18 831 q 293 978 169 978 q 492 904 417 978 q 568 708 568 831 q 493 514 568 588 q 293 440 418 440 m 224 708 q 243 656 224 675 q 293 636 263 636 q 344 656 324 636 q 364 708 364 675 q 344 763 364 742 q 293 783 325 783 q 243 763 263 783 q 224 708 224 742 z "},"₀":{"ha":596,"x_min":25,"x_max":571,"o":"m 297 -156 q 97 -68 168 -156 q 25 182 25 19 q 97 433 25 344 q 297 521 168 521 q 499 433 428 521 q 571 182 571 344 q 499 -68 571 19 q 297 -156 428 -156 m 253 182 q 263 76 253 110 q 297 43 274 43 q 333 76 322 43 q 343 182 343 110 q 333 288 343 256 q 297 321 322 321 q 263 288 274 321 q 253 182 253 256 z "},"₁":{"ha":346,"x_min":21,"x_max":303,"o":"m 90 -146 l 90 313 l 21 313 l 21 510 l 303 510 l 303 -146 l 90 -146 z "},"₂":{"ha":517,"x_min":25,"x_max":492,"o":"m 35 -146 l 35 -25 l 265 254 q 285 301 285 279 q 277 326 285 317 q 253 336 269 336 q 226 324 235 336 q 217 293 217 313 q 217 278 217 286 q 219 261 218 271 l 28 261 q 26 280 26 269 q 25 303 25 290 q 87 460 25 401 q 261 519 149 519 q 432 464 372 519 q 492 318 492 408 q 417 131 492 218 l 319 19 l 489 19 l 489 -146 l 35 -146 z "},"₃":{"ha":532,"x_min":25,"x_max":507,"o":"m 260 -156 q 88 -99 150 -156 q 25 68 26 -42 l 224 68 q 236 40 225 50 q 263 31 247 31 q 288 42 278 31 q 299 74 299 53 q 244 118 299 118 l 138 118 l 138 226 l 239 335 l 39 335 l 39 510 l 483 510 l 483 374 l 367 247 q 507 64 507 211 q 441 -97 507 -37 q 260 -156 375 -156 z "},"₄":{"ha":557,"x_min":25,"x_max":532,"o":"m 276 -146 l 276 -61 l 25 -61 l 25 61 l 165 510 l 481 510 l 479 124 l 532 124 l 532 -61 l 479 -61 l 479 -146 l 276 -146 m 222 103 l 292 103 l 301 376 l 297 376 l 222 103 z "},"₅":{"ha":529,"x_min":29,"x_max":504,"o":"m 265 -156 q 93 -100 157 -156 q 29 56 29 -44 l 228 56 q 263 28 232 28 q 288 40 278 28 q 299 78 299 51 q 288 116 299 106 q 261 126 276 126 q 225 104 235 126 l 38 104 l 56 510 l 476 510 l 476 333 l 239 333 l 233 265 l 236 265 q 315 282 272 282 q 408 260 365 282 q 478 193 451 239 q 504 75 504 147 q 442 -94 504 -32 q 265 -156 379 -156 z "},"₆":{"ha":568,"x_min":25,"x_max":543,"o":"m 446 510 l 336 317 q 486 247 429 308 q 543 88 543 186 q 472 -89 543 -22 q 282 -156 401 -156 q 94 -90 164 -156 q 25 86 25 -25 q 42 194 25 139 q 103 321 60 249 l 211 510 l 446 510 m 238 89 q 250 47 238 63 q 283 32 263 32 q 318 47 306 32 q 331 89 331 63 q 318 130 331 114 q 283 146 306 146 q 250 130 263 146 q 238 89 238 114 z "},"₇":{"ha":449,"x_min":25,"x_max":424,"o":"m 25 313 l 25 510 l 424 510 l 424 381 l 268 -146 l 47 -146 l 190 313 l 25 313 z "},"₈":{"ha":544,"x_min":25,"x_max":519,"o":"m 272 -156 q 90 -101 156 -156 q 25 42 25 -47 q 49 135 25 96 q 115 200 72 175 l 115 203 q 44 339 44 253 q 106 472 44 422 q 272 521 167 521 q 440 472 379 521 q 500 339 500 422 q 429 203 500 253 l 429 200 q 496 135 472 175 q 519 42 519 96 q 454 -101 519 -47 q 272 -156 389 -156 m 226 67 q 240 31 226 44 q 272 17 253 17 q 305 31 292 17 q 318 67 318 44 q 306 101 318 86 q 272 115 293 115 q 239 101 251 115 q 226 67 226 86 m 232 308 q 243 278 232 290 q 272 265 254 265 q 301 278 290 265 q 313 308 313 290 q 301 339 313 328 q 272 350 290 350 q 243 339 254 350 q 232 308 232 328 z "},"₉":{"ha":568,"x_min":25,"x_max":543,"o":"m 122 -146 l 232 47 q 82 117 139 56 q 25 276 25 179 q 97 453 25 386 q 286 519 168 519 q 474 454 404 519 q 543 278 543 389 q 526 171 543 225 q 465 43 508 117 l 357 -146 l 122 -146 m 238 275 q 250 234 238 250 q 285 218 263 218 q 318 234 306 218 q 331 275 331 250 q 318 317 331 301 q 285 332 306 332 q 250 317 263 332 q 238 275 238 301 z "},"⁰":{"ha":596,"x_min":25,"x_max":571,"o":"m 297 422 q 97 510 168 422 q 25 760 25 597 q 97 1010 25 922 q 297 1099 168 1099 q 499 1010 428 1099 q 571 760 571 922 q 499 510 571 597 q 297 422 428 422 m 253 760 q 263 654 253 688 q 297 621 274 621 q 333 654 322 621 q 343 760 343 688 q 333 866 343 833 q 297 899 322 899 q 263 866 274 899 q 253 760 253 833 z "},"¹":{"ha":346,"x_min":21,"x_max":303,"o":"m 90 432 l 90 890 l 21 890 l 21 1088 l 303 1088 l 303 432 l 90 432 z "},"²":{"ha":517,"x_min":25,"x_max":492,"o":"m 35 429 l 35 550 l 265 829 q 285 876 285 854 q 277 901 285 892 q 253 911 269 911 q 226 899 235 911 q 217 868 217 888 q 217 853 217 861 q 219 836 218 846 l 28 836 q 26 855 26 844 q 25 878 25 865 q 87 1035 25 976 q 261 1094 149 1094 q 432 1039 372 1094 q 492 893 492 983 q 417 706 492 793 l 319 594 l 489 594 l 489 429 l 35 429 z "},"³":{"ha":532,"x_min":25,"x_max":507,"o":"m 260 422 q 88 479 150 422 q 25 646 26 536 l 224 646 q 236 618 225 628 q 263 608 247 608 q 288 619 278 608 q 299 651 299 631 q 244 696 299 696 l 138 696 l 138 804 l 239 913 l 39 913 l 39 1088 l 483 1088 l 483 951 l 367 825 q 507 642 507 789 q 441 481 507 540 q 260 422 375 422 z "},"⁴":{"ha":557,"x_min":25,"x_max":532,"o":"m 276 432 l 276 517 l 25 517 l 25 639 l 165 1088 l 481 1088 l 479 701 l 532 701 l 532 517 l 479 517 l 479 432 l 276 432 m 222 681 l 292 681 l 301 954 l 297 954 l 222 681 z "},"⁵":{"ha":529,"x_min":29,"x_max":504,"o":"m 265 422 q 93 478 157 422 q 29 633 29 533 l 228 633 q 263 606 232 606 q 288 617 278 606 q 299 656 299 629 q 288 694 299 683 q 261 704 276 704 q 225 682 235 704 l 38 682 l 56 1088 l 476 1088 l 476 911 l 239 911 l 233 843 l 236 843 q 315 860 272 860 q 408 838 365 860 q 478 771 451 817 q 504 653 504 725 q 442 484 504 546 q 265 422 379 422 z "},"⁶":{"ha":568,"x_min":25,"x_max":543,"o":"m 446 1088 l 336 894 q 486 825 429 886 q 543 665 543 764 q 472 489 543 556 q 282 422 401 422 q 94 488 164 422 q 25 664 25 553 q 42 772 25 717 q 103 899 60 826 l 211 1088 l 446 1088 m 238 667 q 250 625 238 640 q 283 610 263 610 q 318 625 306 610 q 331 667 331 640 q 318 708 331 692 q 283 724 306 724 q 250 708 263 724 q 238 667 238 692 z "},"⁷":{"ha":449,"x_min":25,"x_max":424,"o":"m 25 890 l 25 1088 l 424 1088 l 424 958 l 268 432 l 47 432 l 190 890 l 25 890 z "},"⁸":{"ha":544,"x_min":25,"x_max":519,"o":"m 272 422 q 90 476 156 422 q 25 619 25 531 q 49 713 25 674 q 115 778 72 753 l 115 781 q 44 917 44 831 q 106 1049 44 1000 q 272 1099 167 1099 q 440 1049 379 1099 q 500 917 500 1000 q 429 781 500 831 l 429 778 q 496 713 472 753 q 519 619 519 674 q 454 476 519 531 q 272 422 389 422 m 226 644 q 240 608 226 622 q 272 594 253 594 q 305 608 292 594 q 318 644 318 622 q 306 678 318 664 q 272 693 293 693 q 239 678 251 693 q 226 644 226 664 m 232 886 q 243 856 232 868 q 272 843 254 843 q 301 856 290 843 q 313 886 313 868 q 301 917 313 906 q 272 928 290 928 q 243 917 254 928 q 232 886 232 906 z "},"⁹":{"ha":568,"x_min":25,"x_max":543,"o":"m 122 432 l 232 625 q 82 695 139 633 q 25 854 25 757 q 97 1031 25 964 q 286 1097 168 1097 q 474 1032 404 1097 q 543 856 543 967 q 526 749 543 803 q 465 621 508 694 l 357 432 l 122 432 m 238 853 q 250 812 238 828 q 285 796 263 796 q 318 812 306 796 q 331 853 331 828 q 318 894 331 879 q 285 910 306 910 q 250 894 263 910 q 238 853 238 879 z "},"⁄":{"ha":810,"x_min":11,"x_max":797,"o":"m 11 0 l 590 969 l 797 969 l 219 0 l 11 0 z "},"½":{"ha":1288,"x_min":21,"x_max":1263,"o":"m 90 314 l 90 772 l 21 772 l 21 969 l 303 969 l 303 314 l 90 314 m 188 0 l 767 969 l 974 969 l 396 0 l 188 0 m 796 449 q 858 606 796 547 q 1032 665 919 665 q 1203 610 1143 665 q 1263 464 1263 554 q 1188 276 1263 364 l 1090 165 l 1260 165 l 1260 0 l 806 0 l 806 121 l 1036 400 q 1056 447 1056 425 q 1048 472 1056 463 q 1024 482 1040 482 q 997 470 1006 482 q 988 439 988 458 q 988 424 988 432 q 990 407 989 417 l 799 407 q 797 426 797 415 q 796 449 796 436 z "},"⅓":{"ha":1325,"x_min":21,"x_max":1300,"o":"m 90 314 l 90 772 l 21 772 l 21 969 l 303 969 l 303 314 l 90 314 m 188 0 l 767 969 l 974 969 l 396 0 l 188 0 m 818 214 l 1017 214 q 1029 186 1018 196 q 1056 176 1040 176 q 1081 188 1071 176 q 1092 219 1092 199 q 1038 264 1092 264 l 931 264 l 931 372 l 1032 481 l 832 481 l 832 656 l 1276 656 l 1276 519 l 1160 393 q 1300 210 1300 357 q 1234 49 1300 108 q 1053 -10 1168 -10 q 881 47 943 -10 q 818 214 819 104 z "},"⅔":{"ha":1496,"x_min":25,"x_max":1471,"o":"m 35 314 l 35 435 l 265 714 q 285 761 285 739 q 277 786 285 776 q 253 796 269 796 q 226 784 235 796 q 217 753 217 772 q 217 738 217 746 q 219 721 218 731 l 28 721 q 26 740 26 729 q 25 763 25 750 q 87 920 25 861 q 261 979 149 979 q 432 924 372 979 q 492 778 492 868 q 417 590 492 678 l 319 479 l 489 479 l 489 314 l 35 314 m 358 0 l 938 969 l 1144 969 l 567 0 l 358 0 m 989 214 l 1188 214 q 1200 186 1189 196 q 1226 176 1211 176 q 1252 188 1242 176 q 1263 219 1263 199 q 1208 264 1263 264 l 1101 264 l 1101 372 l 1203 481 l 1003 481 l 1003 656 l 1447 656 l 1447 519 l 1331 393 q 1471 210 1471 357 q 1405 49 1471 108 q 1224 -10 1339 -10 q 1052 47 1114 -10 q 989 214 990 104 z "},"¼":{"ha":1275,"x_min":21,"x_max":1251,"o":"m 90 314 l 90 772 l 21 772 l 21 969 l 303 969 l 303 314 l 90 314 m 188 0 l 767 969 l 974 969 l 396 0 l 188 0 m 744 85 l 744 207 l 885 656 l 1200 656 l 1199 269 l 1251 269 l 1251 85 l 1199 85 l 1199 0 l 996 0 l 996 85 l 744 85 m 942 249 l 1011 249 l 1021 522 l 1017 522 l 942 249 z "},"¾":{"ha":1419,"x_min":25,"x_max":1396,"o":"m 260 304 q 88 361 150 304 q 25 528 26 418 l 224 528 q 236 500 225 510 q 263 490 247 490 q 288 501 278 490 q 299 533 299 513 q 244 578 299 578 l 138 578 l 138 686 l 239 794 l 39 794 l 39 969 l 483 969 l 483 833 l 367 707 q 507 524 507 671 q 441 363 507 422 q 260 304 375 304 m 332 0 l 911 969 l 1118 969 l 540 0 l 332 0 m 889 85 l 889 207 l 1029 656 l 1344 656 l 1343 269 l 1396 269 l 1396 85 l 1343 85 l 1343 0 l 1140 0 l 1140 85 l 889 85 m 1086 249 l 1156 249 l 1165 522 l 1161 522 l 1086 249 z "},"⅛":{"ha":1292,"x_min":21,"x_max":1267,"o":"m 90 314 l 90 772 l 21 772 l 21 969 l 303 969 l 303 314 l 90 314 m 188 0 l 767 969 l 974 969 l 396 0 l 188 0 m 772 188 q 796 281 772 242 q 863 346 819 321 l 863 349 q 792 485 792 399 q 853 617 792 568 q 1019 667 914 667 q 1187 617 1126 667 q 1247 485 1247 568 q 1176 349 1247 399 l 1176 346 q 1243 281 1219 321 q 1267 188 1267 242 q 1201 44 1267 99 q 1019 -10 1136 -10 q 838 44 903 -10 q 772 188 772 99 m 974 213 q 987 176 974 190 q 1019 163 1000 163 q 1052 176 1039 163 q 1065 213 1065 190 q 1053 247 1065 232 q 1019 261 1040 261 q 986 247 999 261 q 974 213 974 232 m 979 454 q 990 424 979 436 q 1019 411 1001 411 q 1049 424 1038 411 q 1060 454 1060 436 q 1049 485 1060 474 q 1019 496 1038 496 q 990 485 1001 496 q 979 454 979 474 z "},"⅜":{"ha":1436,"x_min":25,"x_max":1411,"o":"m 260 304 q 88 361 150 304 q 25 528 26 418 l 224 528 q 236 500 225 510 q 263 490 247 490 q 288 501 278 490 q 299 533 299 513 q 244 578 299 578 l 138 578 l 138 686 l 239 794 l 39 794 l 39 969 l 483 969 l 483 833 l 367 707 q 507 524 507 671 q 441 363 507 422 q 260 304 375 304 m 332 0 l 911 969 l 1118 969 l 540 0 l 332 0 m 917 188 q 940 281 917 242 q 1007 346 964 321 l 1007 349 q 936 485 936 399 q 997 617 936 568 q 1164 667 1058 667 q 1331 617 1271 667 q 1392 485 1392 568 q 1321 349 1392 399 l 1321 346 q 1388 281 1364 321 q 1411 188 1411 242 q 1346 44 1411 99 q 1164 -10 1281 -10 q 982 44 1047 -10 q 917 188 917 99 m 1118 213 q 1131 176 1118 190 q 1164 163 1144 163 q 1197 176 1183 163 q 1210 213 1210 190 q 1197 247 1210 232 q 1164 261 1185 261 q 1131 247 1143 261 q 1118 213 1118 232 m 1124 454 q 1135 424 1124 436 q 1164 411 1146 411 q 1193 424 1182 411 q 1204 454 1204 436 q 1193 485 1204 474 q 1164 496 1182 496 q 1135 485 1146 496 q 1124 454 1124 474 z "},"⅝":{"ha":1419,"x_min":29,"x_max":1394,"o":"m 265 304 q 93 360 157 304 q 29 515 29 415 l 228 515 q 263 488 232 488 q 288 499 278 488 q 299 538 299 511 q 288 576 299 565 q 261 586 276 586 q 225 564 235 586 l 38 564 l 56 969 l 476 969 l 476 793 l 239 793 l 233 725 l 236 725 q 315 742 272 742 q 408 720 365 742 q 478 653 451 699 q 504 535 504 607 q 442 366 504 428 q 265 304 379 304 m 315 0 l 894 969 l 1101 969 l 524 0 l 315 0 m 900 188 q 924 281 900 242 q 990 346 947 321 l 990 349 q 919 485 919 399 q 981 617 919 568 q 1147 667 1042 667 q 1315 617 1254 667 q 1375 485 1375 568 q 1304 349 1375 399 l 1304 346 q 1371 281 1347 321 q 1394 188 1394 242 q 1329 44 1394 99 q 1147 -10 1264 -10 q 965 44 1031 -10 q 900 188 900 99 m 1101 213 q 1115 176 1101 190 q 1147 163 1128 163 q 1180 176 1167 163 q 1193 213 1193 190 q 1181 247 1193 232 q 1147 261 1168 261 q 1114 247 1126 261 q 1101 213 1101 232 m 1107 454 q 1118 424 1107 436 q 1147 411 1129 411 q 1176 424 1165 411 q 1188 454 1188 436 q 1176 485 1188 474 q 1147 496 1165 496 q 1118 485 1129 496 q 1107 454 1107 474 z "},"⅞":{"ha":1301,"x_min":25,"x_max":1276,"o":"m 25 772 l 25 969 l 424 969 l 424 840 l 268 314 l 47 314 l 190 772 l 25 772 m 197 0 l 776 969 l 983 969 l 406 0 l 197 0 m 782 188 q 806 281 782 242 q 872 346 829 321 l 872 349 q 801 485 801 399 q 863 617 801 568 q 1029 667 924 667 q 1197 617 1136 667 q 1257 485 1257 568 q 1186 349 1257 399 l 1186 346 q 1253 281 1229 321 q 1276 188 1276 242 q 1211 44 1276 99 q 1029 -10 1146 -10 q 847 44 913 -10 q 782 188 782 99 m 983 213 q 997 176 983 190 q 1029 163 1010 163 q 1062 176 1049 163 q 1075 213 1075 190 q 1063 247 1075 232 q 1029 261 1050 261 q 996 247 1008 261 q 983 213 983 232 m 989 454 q 1000 424 989 436 q 1029 411 1011 411 q 1058 424 1047 411 q 1069 454 1069 436 q 1058 485 1069 474 q 1029 496 1047 496 q 1000 485 1011 496 q 989 454 989 474 z "}," ":{"ha":88,"x_min":0,"x_max":0,"o":""},".":{"ha":368,"x_min":26,"x_max":342,"o":"m 185 -7 q 70 36 114 -7 q 26 149 26 79 q 70 258 26 217 q 185 300 114 300 q 299 258 256 300 q 342 149 342 217 q 298 36 342 79 q 185 -7 254 -7 z "},",":{"ha":364,"x_min":26,"x_max":340,"o":"m 56 -157 q 144 11 131 -86 q 60 53 93 18 q 26 147 26 88 q 72 257 26 217 q 182 297 117 297 q 293 254 246 297 q 340 117 340 211 q 308 -17 340 44 q 212 -119 275 -79 q 57 -168 149 -160 l 56 -157 z "},":":{"ha":374,"x_min":29,"x_max":344,"o":"m 186 -7 q 73 36 117 -7 q 29 149 29 79 q 73 258 29 217 q 186 300 117 300 q 301 258 258 300 q 344 149 344 217 q 301 36 344 79 q 186 -7 257 -7 m 29 617 q 73 726 29 683 q 186 768 117 768 q 301 726 258 768 q 344 617 344 683 q 301 504 344 547 q 186 461 257 461 q 73 504 117 461 q 29 617 29 547 z "},";":{"ha":374,"x_min":29,"x_max":344,"o":"m 186 461 q 73 504 117 461 q 29 617 29 547 q 73 726 29 683 q 186 768 117 768 q 301 726 258 768 q 344 617 344 683 q 301 504 344 547 q 186 461 257 461 m 29 147 q 74 256 29 214 q 186 297 118 297 q 300 250 257 297 q 343 117 343 203 q 309 -19 343 43 q 213 -120 275 -81 q 61 -168 150 -160 l 58 -157 q 149 11 136 -81 q 62 53 94 18 q 29 147 29 89 z "},"…":{"ha":1103,"x_min":26,"x_max":1078,"o":"m 185 -7 q 70 36 114 -7 q 26 149 26 79 q 70 258 26 217 q 185 300 114 300 q 299 258 256 300 q 342 149 342 217 q 298 36 342 79 q 185 -7 254 -7 m 394 149 q 438 258 394 217 q 553 300 482 300 q 667 258 624 300 q 710 149 710 217 q 666 36 710 79 q 553 -7 622 -7 q 438 36 482 -7 q 394 149 394 79 m 763 149 q 806 258 763 217 q 921 300 850 300 q 1035 258 992 300 q 1078 149 1078 217 q 1034 36 1078 79 q 921 -7 990 -7 q 806 36 850 -7 q 763 149 763 79 z "},"!":{"ha":344,"x_min":25,"x_max":319,"o":"m 50 306 l 33 969 l 311 969 l 294 306 l 50 306 m 25 125 q 67 226 25 189 q 172 263 108 263 q 278 226 238 263 q 319 125 319 189 q 279 26 319 64 q 172 -11 239 -11 q 66 26 107 -11 q 25 125 25 64 z "},"¡":{"ha":344,"x_min":25,"x_max":319,"o":"m 33 -187 l 50 476 l 294 476 l 311 -187 l 33 -187 m 25 657 q 65 756 25 718 q 172 793 106 793 q 279 756 239 793 q 319 657 319 718 q 278 556 319 593 q 172 519 238 519 q 66 556 107 519 q 25 657 25 593 z "},"?":{"ha":500,"x_min":24,"x_max":490,"o":"m 57 551 q 117 542 88 542 q 192 567 164 542 q 219 635 219 592 q 188 706 219 679 q 104 732 157 732 q 24 715 61 732 l 24 967 q 139 979 81 979 q 397 895 303 979 q 490 665 490 811 q 438 488 490 560 q 296 392 386 415 l 294 306 l 57 306 l 57 551 m 31 125 q 71 225 31 188 q 178 263 111 263 q 284 225 243 263 q 325 125 325 188 q 285 26 325 64 q 178 -11 244 -11 q 70 26 110 -11 q 31 125 31 64 z "},"¿":{"ha":496,"x_min":8,"x_max":475,"o":"m 361 -194 q 103 -110 197 -194 q 8 119 8 -25 q 60 299 8 226 q 204 393 113 371 l 204 479 l 443 479 l 443 235 q 412 242 426 239 q 383 244 397 244 q 308 219 336 244 q 279 151 279 194 q 310 81 279 107 q 394 54 342 54 q 475 71 438 54 l 475 -182 q 361 -194 419 -194 m 175 660 q 215 758 175 721 q 322 796 256 796 q 429 758 389 796 q 469 660 469 721 q 428 560 469 597 q 322 522 388 522 q 215 560 256 522 q 175 660 175 597 z "},"·":{"ha":368,"x_min":26,"x_max":342,"o":"m 185 279 q 70 322 114 279 q 26 435 26 365 q 70 544 26 503 q 185 586 114 586 q 299 544 256 586 q 342 435 342 503 q 298 322 342 365 q 185 279 254 279 z "},"•":{"ha":582,"x_min":43,"x_max":539,"o":"m 293 188 q 163 219 219 188 q 75 306 107 250 q 43 433 43 361 q 74 561 43 506 q 163 648 106 617 q 293 679 219 679 q 422 648 367 679 q 508 562 476 617 q 539 433 539 507 q 471 256 539 324 q 293 188 403 188 z "},"*":{"ha":840,"x_min":18,"x_max":822,"o":"m 285 365 l 101 499 l 265 694 l 18 756 l 89 972 l 324 876 l 307 1131 l 533 1131 l 515 876 l 751 972 l 822 756 l 575 694 l 739 499 l 556 365 l 421 582 l 285 365 z "},"#":{"ha":1006,"x_min":29,"x_max":976,"o":"m 449 0 l 493 189 l 372 189 l 328 0 l 90 0 l 135 189 l 29 189 l 46 394 l 185 394 l 226 575 l 106 575 l 121 781 l 276 781 l 321 969 l 558 969 l 514 781 l 635 781 l 679 969 l 917 969 l 872 781 l 976 781 l 961 575 l 822 575 l 781 394 l 901 394 l 885 189 l 731 189 l 686 0 l 449 0 m 422 394 l 543 394 l 585 575 l 464 575 l 422 394 z "},"/":{"ha":603,"x_min":14,"x_max":588,"o":"m 14 -125 l 328 1057 l 588 1057 l 274 -125 l 14 -125 z "},"\\":{"ha":606,"x_min":17,"x_max":593,"o":"m 331 -125 l 17 1057 l 278 1057 l 593 -125 l 331 -125 z "},"-":{"ha":394,"x_min":21,"x_max":374,"o":"m 21 319 l 21 551 l 374 551 l 374 319 l 21 319 z "},"‐":{"ha":394,"x_min":21,"x_max":374,"o":"m 21 319 l 21 551 l 374 551 l 374 319 l 21 319 z "},"­":{"ha":394,"x_min":21,"x_max":374,"o":"m 21 319 l 21 551 l 374 551 l 374 319 l 21 319 z "},"–":{"ha":644,"x_min":21,"x_max":624,"o":"m 21 319 l 21 551 l 624 551 l 624 319 l 21 319 z "},"—":{"ha":1019,"x_min":21,"x_max":999,"o":"m 21 319 l 21 551 l 999 551 l 999 319 l 21 319 z "},"_":{"ha":671,"x_min":21,"x_max":651,"o":"m 21 -187 l 21 31 l 651 31 l 651 -187 l 21 -187 z "},"(":{"ha":474,"x_min":49,"x_max":471,"o":"m 196 -125 q 130 21 164 -62 q 72 213 96 104 q 49 460 49 321 q 73 708 49 599 q 133 903 97 817 q 208 1057 169 989 l 471 1057 q 393 903 431 989 q 332 708 356 817 q 308 460 308 599 q 332 213 308 321 q 390 21 356 104 q 458 -125 425 -62 l 196 -125 z "},")":{"ha":474,"x_min":7,"x_max":426,"o":"m 11 -125 q 84 24 49 -60 q 142 216 119 107 q 165 464 165 325 q 142 712 165 603 q 82 906 118 821 q 7 1057 46 990 l 269 1057 q 343 906 307 990 q 403 712 379 821 q 426 464 426 603 q 403 216 426 325 q 344 24 379 107 q 275 -125 310 -60 l 11 -125 z "},"{":{"ha":531,"x_min":24,"x_max":510,"o":"m 399 -132 q 197 -73 260 -132 q 133 113 133 -14 l 133 275 q 119 335 133 318 q 72 353 106 353 l 24 353 l 24 611 l 72 611 q 119 629 106 611 q 133 690 133 647 l 133 819 q 197 1005 133 946 q 399 1064 260 1064 q 456 1061 428 1064 q 510 1054 483 1058 l 510 813 q 444 828 475 828 q 379 739 379 828 l 379 656 q 353 544 379 583 q 271 485 328 504 l 271 481 q 353 421 328 461 q 379 310 379 381 l 379 193 q 444 104 379 104 q 510 119 475 104 l 510 -122 q 456 -129 483 -126 q 399 -132 428 -132 z "},"}":{"ha":531,"x_min":21,"x_max":507,"o":"m 132 -132 q 76 -129 103 -132 q 21 -122 49 -126 l 21 119 q 86 104 56 104 q 151 193 151 104 l 151 310 q 178 421 151 381 q 260 481 204 461 l 260 483 q 178 543 204 503 q 151 656 151 583 l 151 739 q 86 828 151 828 q 21 813 56 828 l 21 1054 q 76 1061 49 1058 q 132 1064 103 1064 q 335 1005 272 1064 q 397 819 397 946 l 397 690 q 411 629 397 647 q 460 611 425 611 l 507 611 l 507 353 l 460 353 q 411 335 425 353 q 397 275 397 318 l 397 113 q 335 -73 397 -14 q 132 -132 272 -132 z "},"[":{"ha":433,"x_min":65,"x_max":417,"o":"m 65 -125 l 65 1057 l 417 1057 l 417 818 l 313 818 l 313 114 l 417 114 l 417 -125 l 65 -125 z "},"]":{"ha":433,"x_min":15,"x_max":368,"o":"m 15 -125 l 15 114 l 119 114 l 119 818 l 15 818 l 15 1057 l 368 1057 l 368 -125 l 15 -125 z "},"‚":{"ha":364,"x_min":26,"x_max":339,"o":"m 60 -147 q 118 -76 96 -112 q 147 8 140 -39 q 61 49 96 14 q 26 144 26 83 q 72 255 26 215 q 182 294 117 294 q 292 251 246 294 q 339 115 339 208 q 308 -14 339 46 q 215 -112 276 -74 q 61 -160 153 -151 l 60 -147 z "},"„":{"ha":701,"x_min":28,"x_max":675,"o":"m 396 -147 q 454 -76 432 -112 q 483 8 476 -39 q 397 49 432 14 q 363 144 363 83 q 408 255 363 215 q 518 294 453 294 q 628 251 582 294 q 675 115 675 208 q 644 -14 675 46 q 551 -112 613 -74 q 397 -160 489 -151 l 396 -147 m 28 144 q 73 255 28 215 q 183 294 118 294 q 294 251 247 294 q 340 115 340 208 q 309 -14 340 46 q 216 -112 278 -74 q 63 -160 154 -151 l 61 -147 q 119 -76 97 -112 q 149 8 142 -39 q 63 49 97 14 q 28 144 28 83 z "},"“":{"ha":699,"x_min":26,"x_max":672,"o":"m 517 585 q 406 628 453 585 q 360 763 360 671 q 391 893 360 833 q 484 992 422 953 q 638 1039 546 1031 l 640 1028 q 581 956 603 993 q 551 871 558 918 q 638 831 604 865 q 672 735 672 796 q 627 624 672 664 q 517 585 582 585 m 26 763 q 58 893 26 833 q 151 992 89 953 q 304 1039 213 1031 l 307 1028 q 247 956 269 993 q 218 871 225 918 q 305 831 271 865 q 339 735 339 796 q 294 624 339 664 q 183 585 249 585 q 73 628 119 585 q 26 763 26 671 z "},"”":{"ha":699,"x_min":26,"x_max":672,"o":"m 393 538 q 451 610 429 574 q 481 694 474 647 q 394 735 429 700 q 360 831 360 769 q 405 941 360 901 q 515 981 450 981 q 626 937 579 981 q 672 801 672 893 q 641 672 672 732 q 548 572 610 611 q 394 525 486 533 l 393 538 m 26 831 q 72 941 26 901 q 182 981 117 981 q 292 937 246 981 q 339 801 339 893 q 308 672 339 732 q 215 572 276 611 q 61 525 153 533 l 60 538 q 118 610 96 574 q 147 694 140 647 q 61 735 96 700 q 26 831 26 769 z "},"‘":{"ha":364,"x_min":26,"x_max":339,"o":"m 183 585 q 73 628 119 585 q 26 763 26 671 q 58 893 26 833 q 151 992 89 953 q 304 1039 213 1031 l 307 1028 q 247 956 269 993 q 218 871 225 918 q 305 831 271 865 q 339 735 339 796 q 294 624 339 664 q 183 585 249 585 z "},"’":{"ha":364,"x_min":26,"x_max":339,"o":"m 60 538 q 118 610 96 574 q 147 694 140 647 q 61 735 96 700 q 26 831 26 769 q 72 941 26 901 q 182 981 117 981 q 292 937 246 981 q 339 801 339 893 q 308 672 339 732 q 215 572 276 611 q 61 525 153 533 l 60 538 z "},"«":{"ha":758,"x_min":22,"x_max":742,"o":"m 192 83 l 22 381 l 192 678 l 424 678 l 256 383 l 428 83 l 192 83 m 336 381 l 506 678 l 736 678 l 569 385 l 742 83 l 506 83 l 336 381 z "},"»":{"ha":758,"x_min":17,"x_max":735,"o":"m 335 83 l 501 376 l 329 678 l 565 678 l 735 381 l 565 83 l 335 83 m 17 678 l 253 678 l 422 381 l 253 83 l 21 83 l 189 378 l 17 678 z "},"‹":{"ha":464,"x_min":22,"x_max":449,"o":"m 192 83 l 22 381 l 192 678 l 443 678 l 276 385 l 449 83 l 192 83 z "},"›":{"ha":464,"x_min":17,"x_max":442,"o":"m 21 83 l 189 378 l 17 678 l 272 678 l 442 381 l 272 83 l 21 83 z "},"\"":{"ha":554,"x_min":21,"x_max":533,"o":"m 47 554 l 21 969 l 257 969 l 240 554 l 47 554 m 297 969 l 533 969 l 506 554 l 315 554 l 297 969 z "},"'":{"ha":299,"x_min":21,"x_max":278,"o":"m 47 554 l 21 969 l 278 969 l 250 554 l 47 554 z "},"ƒ":{"ha":483,"x_min":6,"x_max":467,"o":"m 115 -194 q 57 -190 85 -194 q 6 -178 29 -185 l 6 49 q 32 39 19 43 q 56 35 44 35 q 85 45 74 35 q 96 82 96 56 l 96 468 l 26 468 l 26 676 l 96 676 l 96 722 q 158 918 96 853 q 338 983 221 983 q 406 978 374 983 q 464 965 438 972 l 464 735 q 403 751 431 751 q 366 738 381 751 q 351 693 351 725 l 351 676 l 467 676 l 467 468 l 351 468 l 351 71 q 288 -129 351 -64 q 115 -194 224 -194 z "},"@":{"ha":1350,"x_min":26,"x_max":1324,"o":"m 693 -196 q 422 -149 544 -196 q 211 -17 300 -103 q 74 187 122 68 q 26 450 26 306 q 74 714 26 594 q 212 921 122 833 q 425 1056 301 1008 q 700 1103 549 1103 q 1031 1031 890 1103 q 1247 828 1171 958 q 1324 522 1324 699 q 1247 243 1324 346 q 1043 140 1171 140 q 942 163 986 140 q 867 224 897 185 l 864 224 q 767 160 824 182 q 649 138 711 138 q 497 178 564 138 q 392 291 431 218 q 354 458 354 364 q 391 624 354 553 q 492 734 428 694 q 636 774 556 774 q 728 759 685 774 q 803 714 771 744 l 806 714 l 806 763 l 999 763 l 999 411 q 1050 328 999 328 q 1106 371 1086 328 q 1126 497 1126 414 q 1015 798 1126 690 q 706 906 904 906 q 460 849 564 906 q 301 692 357 793 q 244 456 244 592 q 301 222 244 322 q 461 67 358 122 q 703 11 564 11 q 846 26 774 11 q 989 71 918 40 l 989 -149 q 843 -185 917 -174 q 693 -196 769 -196 m 590 457 q 617 374 590 406 q 688 343 644 343 q 758 374 732 343 q 783 457 783 406 q 758 540 783 508 q 688 571 732 571 q 617 540 644 571 q 590 457 590 508 z "},"&":{"ha":810,"x_min":11,"x_max":801,"o":"m 296 -10 q 144 25 208 -10 q 46 122 81 60 q 11 264 11 183 q 52 417 11 354 q 164 514 93 479 l 164 518 q 84 601 113 553 q 56 717 56 650 q 145 910 56 836 q 394 983 235 983 q 488 977 440 983 q 586 960 536 971 l 586 726 q 503 748 546 739 q 424 757 460 757 q 338 733 365 757 q 310 672 310 708 q 335 615 310 638 q 404 593 360 593 l 479 593 l 479 674 l 722 674 l 722 593 l 801 593 l 801 401 l 722 401 l 722 0 l 511 0 l 511 65 l 508 65 q 410 8 465 25 q 296 -10 356 -10 m 293 306 q 318 238 293 263 q 382 214 343 214 q 453 244 426 214 q 481 326 481 275 l 481 401 l 399 401 q 322 376 351 401 q 293 306 293 350 z "},"¶":{"ha":858,"x_min":14,"x_max":811,"o":"m 346 -187 l 346 315 q 103 403 192 315 q 14 643 14 490 q 103 883 14 796 q 346 969 192 969 l 549 969 l 549 -187 l 346 -187 m 608 -187 l 608 969 l 811 969 l 811 -187 l 608 -187 z "},"§":{"ha":601,"x_min":25,"x_max":582,"o":"m 254 -167 q 146 -157 203 -167 q 42 -131 89 -147 l 42 153 q 148 94 101 113 q 226 75 194 75 q 279 118 279 75 q 236 185 279 150 l 146 253 q 25 472 25 343 q 42 567 25 521 q 90 646 60 613 q 51 707 64 675 q 39 779 39 739 q 121 953 39 889 q 335 1017 203 1017 q 510 988 418 1017 l 510 733 q 422 776 458 764 q 361 788 385 788 q 313 754 313 788 q 350 697 313 728 l 435 635 q 547 519 513 579 q 582 383 582 458 q 524 210 582 281 q 556 149 544 181 q 567 79 567 117 q 528 -51 567 4 q 419 -136 489 -106 q 254 -167 349 -167 m 225 490 q 268 419 225 454 l 364 347 q 378 364 372 354 q 383 388 383 374 q 374 424 383 406 q 340 458 364 442 l 242 529 q 225 490 225 513 z "},"©":{"ha":1313,"x_min":26,"x_max":1286,"o":"m 657 -194 q 401 -149 517 -194 q 201 -22 285 -104 q 72 176 117 61 q 26 429 26 290 q 72 683 26 568 q 201 880 117 797 q 401 1008 285 963 q 657 1053 517 1053 q 913 1008 797 1053 q 1112 880 1028 963 q 1241 683 1196 797 q 1286 429 1286 568 q 1241 176 1286 290 q 1112 -22 1196 61 q 913 -149 1028 -104 q 657 -194 797 -194 m 236 429 q 290 202 236 300 q 438 50 343 104 q 657 -4 532 -4 q 878 50 783 -4 q 1025 202 972 104 q 1078 429 1078 300 q 1025 656 1078 558 q 878 808 972 754 q 657 863 783 863 q 438 808 532 863 q 290 657 343 754 q 236 429 236 560 m 329 429 q 373 610 329 532 q 494 733 417 689 q 671 778 571 778 q 824 749 744 778 l 824 515 q 713 554 769 554 q 624 520 657 554 q 590 429 590 486 q 624 339 590 374 q 713 304 657 304 q 771 315 743 304 q 824 344 799 326 l 824 110 q 671 81 744 81 q 492 124 569 81 q 372 247 415 168 q 329 429 329 325 z "},"®":{"ha":1025,"x_min":33,"x_max":993,"o":"m 513 124 q 265 184 374 124 q 95 351 157 244 q 33 594 33 457 q 95 839 33 733 q 265 1005 157 944 q 513 1065 374 1065 q 761 1005 653 1065 q 931 839 869 944 q 993 594 993 733 q 931 351 993 457 q 761 184 869 244 q 513 124 653 124 m 175 594 q 217 414 175 490 q 334 296 258 338 q 513 254 410 254 q 691 296 615 254 q 808 414 767 338 q 850 594 850 490 q 808 775 850 699 q 691 893 767 851 q 513 935 615 935 q 334 893 410 935 q 217 775 258 851 q 175 594 175 699 m 326 349 l 326 856 l 556 856 q 672 818 629 856 q 714 711 714 781 q 692 629 714 661 q 633 585 669 597 l 633 582 q 713 463 713 563 l 713 349 l 556 349 l 556 463 q 510 519 556 519 l 482 519 l 482 349 l 326 349 m 482 650 l 517 650 q 563 693 563 650 q 517 735 563 735 l 482 735 l 482 650 z "},"™":{"ha":1379,"x_min":39,"x_max":1328,"o":"m 494 421 l 519 969 l 842 969 l 913 696 l 915 696 l 983 969 l 1303 969 l 1328 421 l 1103 421 l 1097 749 l 1094 749 l 1001 421 l 817 421 l 725 749 l 721 749 l 715 421 l 494 421 m 39 760 l 39 969 l 467 969 l 467 760 l 365 760 l 365 421 l 139 421 l 139 760 l 39 760 z "},"°":{"ha":522,"x_min":17,"x_max":507,"o":"m 261 546 q 135 576 190 546 q 48 659 79 606 q 17 781 17 713 q 48 902 17 849 q 135 986 79 956 q 261 1017 190 1017 q 388 986 333 1017 q 475 902 443 956 q 507 781 507 849 q 475 659 507 713 q 388 576 443 606 q 261 546 333 546 m 203 781 q 219 738 203 754 q 261 721 235 721 q 303 738 288 721 q 319 781 319 754 q 303 823 319 807 q 261 839 288 839 q 219 823 235 839 q 203 781 203 807 z "},"|":{"ha":350,"x_min":54,"x_max":296,"o":"m 54 -125 l 54 1057 l 296 1057 l 296 -125 l 54 -125 z "},"¦":{"ha":343,"x_min":50,"x_max":293,"o":"m 50 576 l 50 1057 l 293 1057 l 293 576 l 50 576 m 50 -125 l 50 356 l 293 356 l 293 -125 l 50 -125 z "},"†":{"ha":561,"x_min":28,"x_max":533,"o":"m 160 300 l 160 697 l 28 697 l 28 915 l 160 915 l 160 1057 l 401 1057 l 401 915 l 533 915 l 533 697 l 401 697 l 401 300 l 160 300 z "},"‡":{"ha":561,"x_min":28,"x_max":533,"o":"m 160 300 l 160 426 l 28 426 l 28 611 l 160 611 l 160 746 l 28 746 l 28 931 l 160 931 l 160 1057 l 401 1057 l 401 931 l 533 931 l 533 746 l 401 746 l 401 611 l 533 611 l 533 426 l 401 426 l 401 300 l 160 300 z "},"¢":{"ha":533,"x_min":19,"x_max":507,"o":"m 219 0 l 229 167 q 76 281 132 199 q 19 485 19 363 q 76 690 19 608 q 229 803 132 771 l 219 969 l 443 969 l 435 814 q 507 793 472 807 l 507 561 q 456 591 482 582 q 403 600 429 600 q 317 571 351 600 q 282 485 282 542 q 317 399 282 429 q 403 369 351 369 q 456 378 429 369 q 507 408 482 388 l 507 176 q 435 156 472 163 l 443 0 l 219 0 z "},"¤":{"ha":861,"x_min":25,"x_max":835,"o":"m 431 163 q 269 197 342 163 l 167 82 l 25 224 l 139 325 q 104 485 104 397 q 139 644 104 572 l 25 746 l 167 888 l 269 772 q 431 807 342 807 q 592 772 519 807 l 694 888 l 835 746 l 721 644 q 757 485 757 575 q 722 325 757 394 l 835 224 l 694 82 l 592 197 q 431 163 519 163 m 315 485 q 348 397 315 432 q 431 363 381 363 q 514 397 482 363 q 546 485 546 432 q 514 573 546 539 q 431 607 482 607 q 347 573 379 607 q 315 485 315 539 z "},"$":{"ha":551,"x_min":15,"x_max":546,"o":"m 149 -139 l 154 -8 q 85 4 119 -4 q 19 22 50 13 l 19 325 q 204 247 139 247 q 242 258 228 247 q 256 294 256 268 q 219 368 256 331 l 121 471 q 40 584 64 524 q 15 708 15 644 q 55 860 15 797 q 164 953 94 922 l 157 1085 l 399 1085 l 393 976 q 486 954 442 969 l 486 700 q 403 740 440 724 q 339 756 367 756 q 290 714 290 756 q 322 654 290 688 l 415 556 q 515 424 485 488 q 546 281 546 360 q 503 115 546 183 q 383 14 461 46 l 390 -139 l 149 -139 z "},"€":{"ha":731,"x_min":24,"x_max":706,"o":"m 592 -11 q 311 67 431 -11 q 139 285 192 146 l 24 285 l 24 454 l 106 454 l 106 485 q 106 500 106 492 q 106 515 106 508 l 24 515 l 24 685 l 139 685 q 311 903 192 825 q 592 981 431 981 q 646 978 617 981 q 706 969 675 976 l 706 710 q 592 732 647 732 q 491 711 538 732 q 413 646 444 690 l 642 646 l 628 515 l 372 515 q 371 501 371 508 q 371 485 371 493 l 372 454 l 624 454 l 610 324 l 413 324 q 491 258 444 279 q 592 238 538 238 q 706 260 647 238 l 706 0 q 646 -8 675 -6 q 592 -11 617 -11 z "},"£":{"ha":806,"x_min":33,"x_max":761,"o":"m 49 157 q 115 244 93 200 q 136 353 136 289 l 33 353 l 33 568 l 113 568 l 103 640 q 126 826 89 749 q 242 943 163 903 q 432 983 321 983 q 672 899 590 983 q 753 660 753 815 l 493 660 q 432 735 493 735 q 383 713 400 735 q 372 650 367 690 l 385 568 l 675 568 l 675 353 l 401 353 q 368 233 394 289 l 761 233 l 761 0 l 49 0 l 49 157 z "},"¥":{"ha":699,"x_min":4,"x_max":694,"o":"m 206 0 l 206 164 l 26 164 l 26 332 l 188 332 l 169 396 l 26 396 l 26 574 l 119 569 l 4 969 l 276 969 l 350 554 l 354 554 l 431 969 l 694 969 l 581 569 l 672 574 l 672 396 l 532 396 l 514 332 l 672 332 l 672 164 l 493 164 l 493 0 l 206 0 z "},"+":{"ha":767,"x_min":69,"x_max":697,"o":"m 263 132 l 263 335 l 69 335 l 69 567 l 263 567 l 263 769 l 504 769 l 504 567 l 697 567 l 697 335 l 504 335 l 504 132 l 263 132 z "},"−":{"ha":767,"x_min":69,"x_max":697,"o":"m 69 325 l 69 576 l 697 576 l 697 325 l 69 325 z "},"×":{"ha":767,"x_min":71,"x_max":696,"o":"m 528 138 l 381 286 l 236 142 l 74 303 l 218 447 l 71 596 l 239 764 l 386 615 l 531 760 l 693 599 l 549 454 l 696 306 l 528 138 z "},"÷":{"ha":767,"x_min":69,"x_max":697,"o":"m 69 344 l 69 557 l 697 557 l 697 344 l 69 344 m 250 179 q 286 267 250 235 q 383 300 322 300 q 481 267 444 300 q 517 179 517 235 q 481 94 517 126 q 383 61 444 61 q 287 94 324 61 q 250 179 250 126 m 250 721 q 286 808 250 776 q 383 840 322 840 q 481 808 444 840 q 517 721 517 776 q 481 634 517 667 q 383 601 444 601 q 287 634 324 601 q 250 721 250 667 z "},"=":{"ha":767,"x_min":69,"x_max":697,"o":"m 69 483 l 69 682 l 697 682 l 697 483 l 69 483 m 69 211 l 69 410 l 697 410 l 697 211 l 69 211 z "},">":{"ha":767,"x_min":50,"x_max":724,"o":"m 50 65 l 50 315 l 499 446 l 499 449 l 50 578 l 50 832 l 724 599 l 724 299 l 50 65 z "},"<":{"ha":767,"x_min":43,"x_max":717,"o":"m 717 65 l 43 300 l 43 599 l 717 832 l 717 583 l 268 453 l 268 450 l 717 321 l 717 65 z "},"±":{"ha":767,"x_min":69,"x_max":697,"o":"m 263 364 l 263 529 l 69 529 l 69 761 l 263 761 l 263 925 l 504 925 l 504 761 l 697 761 l 697 529 l 504 529 l 504 364 l 263 364 m 69 60 l 69 293 l 697 293 l 697 60 l 69 60 z "},"~":{"ha":817,"x_min":50,"x_max":768,"o":"m 540 314 q 440 331 485 314 q 361 365 396 349 q 297 382 326 382 q 255 365 271 382 q 236 318 239 347 l 50 318 q 114 544 50 474 q 276 615 178 615 q 377 599 333 615 q 456 565 421 582 q 519 547 492 547 q 563 565 546 547 q 581 611 579 582 l 768 611 q 703 385 768 456 q 540 314 639 314 z "},"¬":{"ha":767,"x_min":69,"x_max":697,"o":"m 456 196 l 456 397 l 69 397 l 69 631 l 697 631 l 697 196 l 456 196 z "},"^":{"ha":776,"x_min":47,"x_max":729,"o":"m 47 592 l 247 1024 l 531 1024 l 729 592 l 483 592 l 390 817 l 386 817 l 292 592 l 47 592 z "},"µ":{"ha":700,"x_min":36,"x_max":665,"o":"m 36 -187 l 36 763 l 289 763 l 289 304 q 347 228 289 228 q 411 304 411 228 l 411 763 l 665 763 l 665 0 l 451 0 l 451 61 l 449 61 q 367 6 414 24 q 267 -11 319 -11 l 267 -187 l 36 -187 z "},"%":{"ha":1025,"x_min":13,"x_max":1013,"o":"m 749 -14 q 622 17 678 -14 q 535 103 567 47 q 503 231 503 158 q 535 359 503 304 q 622 445 567 414 q 749 476 678 476 q 876 445 821 476 q 962 359 931 414 q 993 231 993 304 q 962 103 993 158 q 876 17 931 47 q 749 -14 821 -14 m 13 0 l 283 429 l 490 429 l 321 0 l 13 0 m 31 739 q 62 866 31 811 q 149 952 93 921 q 275 983 204 983 q 402 952 347 983 q 489 866 457 921 q 521 739 521 811 q 489 610 521 665 q 402 525 457 556 q 275 494 347 494 q 149 525 204 494 q 62 610 93 556 q 31 739 31 665 m 222 739 q 237 691 222 708 q 275 674 251 674 q 314 691 299 674 q 329 739 329 708 q 314 785 329 768 q 275 801 299 801 q 237 785 251 801 q 222 739 222 768 m 533 540 l 704 969 l 1013 969 l 740 540 l 533 540 m 694 231 q 710 183 694 200 q 749 167 725 167 q 787 183 772 167 q 801 231 801 200 q 787 278 801 261 q 749 294 772 294 q 710 278 725 294 q 694 231 694 261 z "},"‰":{"ha":1439,"x_min":13,"x_max":1429,"o":"m 726 -14 q 563 53 624 -14 q 503 231 503 121 q 563 408 503 340 q 726 476 624 476 q 890 408 829 476 q 950 231 950 340 q 890 53 950 121 q 726 -14 829 -14 m 13 0 l 283 429 l 490 429 l 321 0 l 13 0 m 31 739 q 62 866 31 811 q 149 952 93 921 q 275 983 204 983 q 402 952 347 983 q 489 866 457 921 q 521 739 521 811 q 489 610 521 665 q 402 525 457 556 q 275 494 347 494 q 149 525 204 494 q 62 610 93 556 q 31 739 31 665 m 222 739 q 237 691 222 708 q 275 674 251 674 q 314 691 299 674 q 329 739 329 708 q 314 785 329 768 q 275 801 299 801 q 237 785 251 801 q 222 739 222 768 m 533 540 l 704 969 l 1013 969 l 740 540 l 533 540 m 681 231 q 726 167 681 167 q 774 231 774 167 q 726 294 774 294 q 681 231 681 294 m 982 231 q 1042 408 982 340 q 1206 476 1103 476 q 1369 408 1308 476 q 1429 231 1429 340 q 1369 53 1429 121 q 1206 -14 1308 -14 q 1042 53 1103 -14 q 982 231 982 121 m 1158 231 q 1206 167 1158 167 q 1251 231 1251 167 q 1206 294 1251 294 q 1158 231 1158 294 z "},"↑":{"ha":919,"x_min":26,"x_max":893,"o":"m 336 0 l 336 390 l 346 557 l 343 558 l 26 261 l 26 610 l 460 983 l 893 610 l 893 261 l 578 557 l 575 556 l 585 390 l 585 0 l 336 0 z "},"↗":{"ha":911,"x_min":25,"x_max":878,"o":"m 878 969 l 878 351 l 640 138 l 640 578 l 638 579 l 547 461 l 201 115 l 25 293 l 369 638 l 488 728 l 488 731 l 46 731 l 260 969 l 878 969 z "},"→":{"ha":975,"x_min":15,"x_max":969,"o":"m 247 51 l 542 368 l 540 371 l 376 360 l 15 360 l 15 610 l 376 610 l 542 599 l 543 601 l 247 918 l 596 918 l 969 485 l 596 51 l 247 51 z "},"↘":{"ha":911,"x_min":25,"x_max":879,"o":"m 260 0 l 46 239 l 488 239 l 488 242 l 371 332 l 25 676 l 201 854 l 547 508 l 638 390 l 640 392 l 640 832 l 879 618 l 879 0 l 260 0 z "},"↓":{"ha":919,"x_min":26,"x_max":893,"o":"m 583 969 l 583 579 l 574 413 l 576 411 l 893 708 l 893 360 l 460 -14 l 26 360 l 26 708 l 342 413 l 344 414 l 335 579 l 335 969 l 583 969 z "},"↙":{"ha":911,"x_min":33,"x_max":886,"o":"m 33 0 l 33 618 l 271 832 l 271 392 l 274 390 l 364 508 l 710 854 l 886 676 l 542 332 l 424 242 l 424 239 l 865 239 l 651 0 l 33 0 z "},"←":{"ha":975,"x_min":6,"x_max":960,"o":"m 728 918 l 433 601 l 435 599 l 599 610 l 960 610 l 960 360 l 599 360 l 433 371 l 432 368 l 728 51 l 379 51 l 6 485 l 379 918 l 728 918 z "},"↖":{"ha":911,"x_min":32,"x_max":886,"o":"m 651 969 l 865 731 l 424 731 l 424 728 l 540 638 l 886 293 l 710 115 l 364 461 l 274 579 l 271 578 l 271 138 l 32 351 l 32 969 l 651 969 z "},"↔":{"ha":1596,"x_min":6,"x_max":1590,"o":"m 379 51 l 6 485 l 379 918 l 729 918 l 433 601 l 435 599 l 599 610 l 997 610 l 1163 599 l 1164 601 l 867 918 l 1217 918 l 1590 485 l 1217 51 l 867 51 l 1163 368 l 1161 371 l 997 360 l 599 360 l 433 371 l 432 368 l 729 51 l 379 51 z "},"↕":{"ha":949,"x_min":42,"x_max":907,"o":"m 474 -222 l 42 103 l 42 421 l 357 174 l 360 175 l 331 392 l 331 525 l 360 743 l 357 744 l 42 496 l 42 814 l 474 1139 l 907 814 l 907 496 l 592 743 l 589 742 l 618 525 l 618 392 l 589 174 l 592 172 l 907 421 l 907 103 l 474 -222 z "},"̈":{"ha":0,"x_min":156,"x_max":678,"o":"m 269 803 q 187 834 218 803 q 156 913 156 865 q 187 990 156 960 q 269 1021 218 1021 q 353 991 322 1021 q 385 913 385 961 q 353 834 385 865 q 269 803 322 803 m 449 913 q 481 990 449 960 q 564 1021 513 1021 q 647 991 615 1021 q 678 913 678 961 q 647 834 678 865 q 564 803 615 803 q 481 834 513 803 q 449 913 449 865 z "},"̇":{"ha":0,"x_min":274,"x_max":560,"o":"m 417 807 q 313 842 351 807 q 274 935 274 876 q 312 1028 274 993 q 417 1064 350 1064 q 522 1028 483 1064 q 560 935 560 993 q 522 842 560 876 q 417 807 483 807 z "},"̀":{"ha":0,"x_min":176,"x_max":531,"o":"m 319 815 l 176 1051 l 436 1051 l 531 815 l 319 815 z "},"́":{"ha":0,"x_min":306,"x_max":656,"o":"m 306 815 l 400 1051 l 656 1051 l 513 815 l 306 815 z "},"̋":{"ha":0,"x_min":181,"x_max":771,"o":"m 181 815 l 263 1051 l 478 1051 l 367 815 l 181 815 m 449 815 l 549 1051 l 771 1051 l 642 815 l 449 815 z "},"̂":{"ha":0,"x_min":135,"x_max":696,"o":"m 135 815 l 290 1051 l 543 1051 l 696 815 l 481 815 l 418 914 l 415 914 l 351 815 l 135 815 z "},"̌":{"ha":0,"x_min":135,"x_max":696,"o":"m 288 815 l 135 1051 l 350 1051 l 413 951 l 415 951 l 479 1051 l 696 1051 l 540 815 l 288 815 z "},"̆":{"ha":0,"x_min":164,"x_max":667,"o":"m 414 807 q 236 872 303 807 q 164 1051 169 938 l 333 1051 q 414 976 347 976 q 496 1051 482 976 l 667 1051 q 593 872 661 938 q 414 807 525 807 z "},"̊":{"ha":0,"x_min":244,"x_max":589,"o":"m 417 804 q 293 849 342 804 q 244 965 244 894 q 293 1082 244 1036 q 417 1128 342 1128 q 540 1082 492 1128 q 589 965 589 1036 q 540 849 589 894 q 417 804 492 804 m 363 965 q 378 926 363 942 q 417 911 393 911 q 456 926 440 911 q 471 965 471 942 q 456 1004 471 989 q 417 1019 440 1019 q 378 1004 393 1019 q 363 965 363 989 z "},"̃":{"ha":0,"x_min":119,"x_max":714,"o":"m 526 813 q 442 827 479 813 q 377 856 406 842 q 325 869 349 869 q 274 815 281 869 l 119 815 q 173 988 119 932 q 307 1044 226 1044 q 391 1031 354 1044 q 456 1003 428 1017 q 508 989 485 989 q 544 1003 531 989 q 560 1042 557 1018 l 714 1042 q 661 869 714 926 q 526 813 608 813 z "},"̄":{"ha":0,"x_min":181,"x_max":653,"o":"m 181 829 l 181 1004 l 653 1004 l 653 829 l 181 829 z "},"̒":{"ha":0,"x_min":296,"x_max":549,"o":"m 296 815 l 358 1051 l 549 1051 l 521 815 l 296 815 z "},"̦":{"ha":0,"x_min":278,"x_max":531,"o":"m 278 -243 l 306 -46 l 531 -46 l 468 -243 l 278 -243 z "},"̧":{"ha":0,"x_min":167,"x_max":456,"o":"m 392 -215 l 167 -157 l 289 96 l 456 50 l 392 -215 z "},"̨":{"ha":0,"x_min":158,"x_max":426,"o":"m 336 -243 q 201 -203 244 -243 q 158 -104 158 -162 q 206 5 158 -39 q 329 71 253 49 l 426 0 q 368 -19 389 0 q 347 -61 347 -37 q 386 -96 347 -96 q 406 -93 396 -96 q 426 -86 415 -90 l 426 -232 q 379 -240 403 -237 q 336 -243 356 -243 z "},"¨":{"ha":833,"x_min":156,"x_max":678,"o":"m 269 803 q 187 834 218 803 q 156 913 156 865 q 187 990 156 960 q 269 1021 218 1021 q 353 991 322 1021 q 385 913 385 961 q 353 834 385 865 q 269 803 322 803 m 449 913 q 481 990 449 960 q 564 1021 513 1021 q 647 991 615 1021 q 678 913 678 961 q 647 834 678 865 q 564 803 615 803 q 481 834 513 803 q 449 913 449 865 z "},"˙":{"ha":833,"x_min":274,"x_max":560,"o":"m 417 807 q 313 842 351 807 q 274 935 274 876 q 312 1028 274 993 q 417 1064 350 1064 q 522 1028 483 1064 q 560 935 560 993 q 522 842 560 876 q 417 807 483 807 z "},"`":{"ha":833,"x_min":176,"x_max":531,"o":"m 319 815 l 176 1051 l 436 1051 l 531 815 l 319 815 z "},"´":{"ha":833,"x_min":306,"x_max":656,"o":"m 306 815 l 400 1051 l 656 1051 l 513 815 l 306 815 z "},"˝":{"ha":833,"x_min":181,"x_max":771,"o":"m 181 815 l 263 1051 l 478 1051 l 367 815 l 181 815 m 449 815 l 549 1051 l 771 1051 l 642 815 l 449 815 z "},"ˆ":{"ha":833,"x_min":135,"x_max":696,"o":"m 135 815 l 290 1051 l 543 1051 l 696 815 l 481 815 l 418 914 l 415 914 l 351 815 l 135 815 z "},"ˇ":{"ha":833,"x_min":135,"x_max":696,"o":"m 288 815 l 135 1051 l 350 1051 l 413 951 l 415 951 l 479 1051 l 696 1051 l 540 815 l 288 815 z "},"˘":{"ha":833,"x_min":164,"x_max":667,"o":"m 414 807 q 236 872 303 807 q 164 1051 169 938 l 333 1051 q 414 976 347 976 q 496 1051 482 976 l 667 1051 q 593 872 661 938 q 414 807 525 807 z "},"˚":{"ha":833,"x_min":244,"x_max":589,"o":"m 417 804 q 293 849 342 804 q 244 965 244 894 q 293 1082 244 1036 q 417 1128 342 1128 q 540 1082 492 1128 q 589 965 589 1036 q 540 849 589 894 q 417 804 492 804 m 363 965 q 378 926 363 942 q 417 911 393 911 q 456 926 440 911 q 471 965 471 942 q 456 1004 471 989 q 417 1019 440 1019 q 378 1004 393 1019 q 363 965 363 989 z "},"˜":{"ha":833,"x_min":119,"x_max":714,"o":"m 526 813 q 442 827 479 813 q 377 856 406 842 q 325 869 349 869 q 274 815 281 869 l 119 815 q 173 988 119 932 q 307 1044 226 1044 q 391 1031 354 1044 q 456 1003 428 1017 q 508 989 485 989 q 544 1003 531 989 q 560 1042 557 1018 l 714 1042 q 661 869 714 926 q 526 813 608 813 z "},"¯":{"ha":833,"x_min":181,"x_max":653,"o":"m 181 829 l 181 1004 l 653 1004 l 653 829 l 181 829 z "},"¸":{"ha":833,"x_min":167,"x_max":456,"o":"m 392 -215 l 167 -157 l 289 96 l 456 50 l 392 -215 z "},"˛":{"ha":833,"x_min":158,"x_max":426,"o":"m 336 -243 q 201 -203 244 -243 q 158 -104 158 -162 q 206 5 158 -39 q 329 71 253 49 l 426 0 q 368 -19 389 0 q 347 -61 347 -37 q 386 -96 347 -96 q 406 -93 396 -96 q 426 -86 415 -90 l 426 -232 q 379 -240 403 -237 q 336 -243 356 -243 z "}}}
